<svg width="56" height="62" viewBox="0 0 56 62" fill="none" xmlns="http://www.w3.org/2000/svg">
<path d="M55.0074 13.3249L27.9998 4.47705L0.992188 13.3249V24.1116C0.992188 39.5038 10.2521 53.7433 25.3572 61.8909C26.2289 61.9621 27.1098 62.0002 27.9998 62.0002C28.8898 62.0002 29.7707 61.9621 30.6423 61.8908C45.7476 53.7433 55.0073 39.5038 55.0073 24.1114V13.3249H55.0074ZM48.7987 24.1116C48.7987 37.4432 40.9112 49.7996 27.9998 57.0343C15.0883 49.7996 7.20081 37.4432 7.20081 24.1116V16.9761L27.9998 10.1621L48.7987 16.9759V24.1116Z" fill="#D0D0D0"/>
<path d="M27.9998 59.375C11.3383 51.5149 0.992188 36.5305 0.992188 20.2595V9.47287L27.9998 0.625L55.0074 9.47287V20.2595C55.0074 36.5305 44.6613 51.5149 27.9998 59.375Z" fill="#EDC85F"/>
<path d="M33.0037 2.26416L55.0075 9.47278V20.2594C55.0075 34.8327 46.7069 48.3725 33.0037 56.6873C19.3006 48.3725 11 34.8325 11 20.2594V9.47278L33.0037 2.26416Z" fill="#FFD06B"/>
<path d="M0.992188 9.47287V20.2595C0.992188 36.5305 11.3382 51.5148 27.9998 59.375C44.6613 51.5148 55.0073 36.5305 55.0073 20.2595V9.47287L27.9998 0.625L0.992188 9.47287ZM48.7987 20.2595C48.7987 33.5911 40.9112 45.9475 27.9998 53.1823C15.0884 45.9475 7.20094 33.5911 7.20094 20.2595V13.124L27.9998 6.31L48.7987 13.1239V20.2595Z" fill="#FFFAD2"/>
<path d="M29.3248 58.7265C28.8873 58.9474 28.4463 59.1641 27.9997 59.3749C11.3382 51.5146 0.992188 36.5304 0.992188 20.2594V9.47274L4.48456 8.32861V18.9975C4.48456 35.0415 13.8909 49.9156 29.3248 58.7265Z" fill="#FFF5AF"/>
</svg>
