<svg width="57" height="64" viewBox="0 0 57 64" fill="none" xmlns="http://www.w3.org/2000/svg">
<path d="M28.5987 17.9727C28.1974 17.9727 27.7963 17.8485 27.4562 17.5999L21.249 13.0627C20.3869 12.4325 20.1996 11.224 20.8308 10.3631C21.4618 9.50212 22.6721 9.31525 23.5344 9.9455L28.5988 13.6475L33.6633 9.9455C34.5257 9.31537 35.7358 9.5025 36.3669 10.3631C36.9981 11.224 36.8107 12.4325 35.9487 13.0627L29.7414 17.5999C29.4011 17.8485 28.9999 17.9727 28.5987 17.9727Z" fill="#73B7DD"/>
<path d="M20.8288 53.6372C20.1976 52.7763 20.385 51.5678 21.247 50.9375L27.4542 46.4003C28.1344 45.903 29.0592 45.903 29.7395 46.4003L35.9468 50.9375C36.8089 51.5678 36.9962 52.7763 36.365 53.6372C35.734 54.4979 34.5234 54.6849 33.6614 54.0548L28.597 50.3527L23.5325 54.0548C22.3096 54.8639 21.2077 54.154 20.8288 53.6372Z" fill="#73B7DD"/>
<path d="M16.3092 25.0569C16.1086 25.4039 15.8002 25.6887 15.4144 25.8586L8.37569 28.9576C7.39812 29.3879 6.25619 28.9456 5.82518 27.9694C5.39392 26.9933 5.83707 25.8533 6.81476 25.4227L12.5577 22.8941L11.8792 16.6636C11.7639 15.6028 12.5313 14.6498 13.5932 14.5344C14.6554 14.4191 15.61 15.1854 15.7255 16.2459L16.5571 23.8823C16.6027 24.3007 16.5099 24.7099 16.3092 25.0569Z" fill="#73B7DD"/>
<path d="M43.4382 49.4652C42.3761 49.5806 41.4215 48.8142 41.306 47.7537L40.4743 40.1173C40.3832 39.2805 40.8456 38.4807 41.6168 38.1411L48.6557 35.0421C49.6332 34.6117 50.7752 35.0541 51.2062 36.0302C51.6372 37.0062 51.194 38.1466 50.2166 38.577L44.4735 41.1056L45.1521 47.3361C45.2425 48.798 44.0759 49.396 43.4382 49.4652Z" fill="#73B7DD"/>
<path d="M16.3911 39.0845C16.5918 39.4315 16.6845 39.8405 16.639 40.2591L15.8074 47.8953C15.6918 48.956 14.7373 49.7221 13.6751 49.6068C12.6129 49.4917 11.8456 48.5385 11.9611 47.4777L12.6396 41.2472L6.89662 38.7186C5.91905 38.288 5.47615 37.1478 5.90703 36.1718C6.33804 35.1957 7.47997 34.7533 8.45754 35.1837L15.4963 38.2827C15.882 38.4527 16.1904 38.7376 16.3911 39.0845Z" fill="#73B7DD"/>
<path d="M51.1241 27.8282C50.6931 28.8043 49.5511 29.2466 48.5736 28.8163L41.5348 25.7174C40.7633 25.3777 40.301 24.5782 40.3923 23.7412L41.224 16.1048C41.3396 15.0442 42.2941 14.2781 43.3563 14.3933C44.4183 14.5087 45.1857 15.4619 45.0703 16.5224L44.3917 22.7531L50.1347 25.2816C51.4474 25.9342 51.3828 27.2421 51.1241 27.8282Z" fill="#73B7DD"/>
<path d="M28.5986 17.9727C28.9998 17.9727 29.4012 17.8483 29.7412 17.5998L33.9203 14.5449V9.78906C33.8321 9.83456 33.7456 9.88494 33.6631 9.94544L28.5986 13.6474L23.6035 9.99619V14.7838L27.4561 17.5999C27.7962 17.8486 28.1973 17.9727 28.5986 17.9727Z" fill="#5E9CD3"/>
<path d="M27.4554 46.4002L23.4395 49.3357V54.1135C23.4706 54.0948 23.502 54.0755 23.5335 54.0548L28.5979 50.3527L33.6624 54.0548C33.6929 54.0772 33.725 54.0962 33.7564 54.1164V49.3358L29.7405 46.4003C29.0605 45.903 28.1359 45.903 27.4554 46.4002Z" fill="#5E9CD3"/>
<path d="M16.3099 25.0571C16.5105 24.7102 16.6034 24.301 16.5578 23.8826L16.0251 18.992L11.8763 16.6001C11.8779 16.6215 11.8777 16.6425 11.88 16.6638L12.5585 22.8943L6.81559 25.423C6.76589 25.4448 6.71869 25.4697 6.67188 25.4951L10.8155 27.884L15.4151 25.8587C15.8011 25.6888 16.1093 25.4041 16.3099 25.0571Z" fill="#5E9CD3"/>
<path d="M45.1543 47.3364L44.4757 41.1059L50.0942 38.6322L45.9417 36.2383L41.6188 38.1415C40.8473 38.4813 40.385 39.2808 40.4763 40.1178L41.0416 45.3088L45.1513 47.6779C45.1598 47.5695 45.1617 47.4562 45.1543 47.3364Z" fill="#5E9CD3"/>
<path d="M16.3921 39.0841C16.1916 38.7373 15.883 38.4524 15.4973 38.2825L11.082 36.3384L6.92969 38.7321L12.6408 41.2466L11.9623 47.4771C11.9531 47.5629 11.9515 47.6475 11.9533 47.7315L16.0857 45.3493L16.6401 40.2588C16.6855 39.8403 16.5928 39.4313 16.3921 39.0841Z" fill="#5E9CD3"/>
<path d="M41.5367 25.7178L46.4144 27.8652L50.5043 25.5073C50.3956 25.4262 50.2741 25.3502 50.1366 25.2819L44.3935 22.7534L45.0465 16.7583L40.8941 19.1522L40.3943 23.7417C40.3029 24.5783 40.7652 25.3781 41.5367 25.7178Z" fill="#5E9CD3"/>
<path d="M52.4368 43.7007L32.4668 32.188L52.4368 20.6753C53.362 20.1419 53.679 18.9607 53.1448 18.0368C52.6107 17.1129 51.4277 16.796 50.5024 17.3298L30.5324 28.8424V5.44041C30.5324 4.37366 29.6663 3.50879 28.5979 3.50879C27.5296 3.50879 26.6635 4.37366 26.6635 5.44041V28.8425L6.36684 17.1414C5.44136 16.6077 4.25836 16.9244 3.72445 17.8484C3.19029 18.7724 3.50726 19.9537 4.4325 20.4869L24.7291 32.1878L4.43237 43.889C3.50713 44.4224 3.19017 45.6037 3.72433 46.5275C4.08261 47.1473 5.08946 47.8203 6.36672 47.2345L26.6633 35.5335V58.5589C26.6633 59.6257 27.5295 60.4905 28.5978 60.4905C29.6661 60.4905 30.5323 59.6257 30.5323 58.5589V35.5337L50.5023 47.0463C51.8068 47.7747 52.7865 46.9589 53.1447 46.3393C53.679 45.4154 53.3619 44.234 52.4368 43.7007Z" fill="#B3DBF4"/>
<path d="M39.5116 38.2903L41.5199 37.406L32.4683 32.1878L41.8903 26.756L39.5116 25.7085L39.7489 23.5298L30.534 28.8422V18.0039L28.5995 19.4179L26.6651 18.0039V28.8423L17.4502 23.5299L17.6875 25.7085L15.3086 26.756L24.7306 32.1878L15.6793 37.406L17.6875 38.2903L17.4064 40.871L26.6651 35.5334V45.995L28.5995 44.581L30.534 45.995V35.5334L39.7926 40.871L39.5116 38.2903Z" fill="#94CBED"/>
<path d="M28.5984 7.2525C30.6041 7.2525 32.23 5.62897 32.23 3.62625C32.23 1.62353 30.6041 0 28.5984 0C26.5927 0 24.9668 1.62353 24.9668 3.62625C24.9668 5.62897 26.5927 7.2525 28.5984 7.2525Z" fill="#CAE7FC"/>
<path d="M28.5984 64.0001C30.6041 64.0001 32.23 62.3765 32.23 60.3738C32.23 58.3711 30.6041 56.7476 28.5984 56.7476C26.5927 56.7476 24.9668 58.3711 24.9668 60.3738C24.9668 62.3765 26.5927 64.0001 28.5984 64.0001Z" fill="#CAE7FC"/>
<path d="M3.63159 21.5333C5.63727 21.5333 7.26319 19.9097 7.26319 17.907C7.26319 15.9043 5.63727 14.2808 3.63159 14.2808C1.62592 14.2808 0 15.9043 0 17.907C0 19.9097 1.62592 21.5333 3.63159 21.5333Z" fill="#CAE7FC"/>
<path d="M52.8484 49.9073C54.8541 49.9073 56.48 48.2838 56.48 46.281C56.48 44.2783 54.8541 42.6548 52.8484 42.6548C50.8427 42.6548 49.2168 44.2783 49.2168 46.281C49.2168 48.2838 50.8427 49.9073 52.8484 49.9073Z" fill="#CAE7FC"/>
<path d="M3.63159 50.0962C5.63727 50.0962 7.26319 48.4727 7.26319 46.47C7.26319 44.4673 5.63727 42.8438 3.63159 42.8438C1.62592 42.8438 0 44.4673 0 46.47C0 48.4727 1.62592 50.0962 3.63159 50.0962Z" fill="#CAE7FC"/>
<path d="M52.8484 21.7212C54.8541 21.7212 56.48 20.0977 56.48 18.095C56.48 16.0923 54.8541 14.4688 52.8484 14.4688C50.8427 14.4688 49.2168 16.0923 49.2168 18.095C49.2168 20.0977 50.8427 21.7212 52.8484 21.7212Z" fill="#CAE7FC"/>
<path d="M22.6038 44.7647C22.1386 44.7647 21.6712 44.6422 21.2424 44.3951C20.2971 43.8501 19.783 42.8382 19.9011 41.7546L20.4638 36.5879L15.7014 34.4912C14.7024 34.0514 14.082 33.1011 14.082 32.0111C14.082 30.9208 14.7026 29.9706 15.7014 29.5308L20.4638 27.4341L19.9011 22.2674C19.783 21.1838 20.2971 20.1721 21.2424 19.6269C22.188 19.0819 23.3225 19.1432 24.2033 19.7872L28.403 22.8572L32.6027 19.7872C33.4837 19.1434 34.6181 19.0821 35.5635 19.6269C36.5089 20.1719 37.0229 21.1838 36.9049 22.2674L36.3422 27.4341L41.1045 29.5308C42.1035 29.9706 42.7239 30.9209 42.7239 32.0111C42.7239 33.1011 42.1034 34.0514 41.1045 34.4912L36.3422 36.5879L36.9049 41.7546C37.0229 42.8382 36.5089 43.8499 35.5635 44.3951C34.6179 44.9401 33.4835 44.8784 32.6027 44.2347L28.403 41.1649L24.2033 44.2347C23.7218 44.5867 23.1645 44.7647 22.6038 44.7647ZM22.6091 21.1918C22.4194 21.1918 22.27 21.2648 22.2097 21.2996C22.1065 21.3592 21.7732 21.5899 21.8243 22.0586L22.4636 27.9281C22.5093 28.3466 22.2781 28.7463 21.8923 28.9162L16.4821 31.2982C16.0502 31.4884 16.0166 31.8918 16.0166 32.0111C16.0166 32.1302 16.0502 32.5338 16.4821 32.7238L21.8923 35.1058C22.278 35.2756 22.5092 35.6753 22.4636 36.0939L21.8243 41.9634C21.7732 42.4321 22.1065 42.6628 22.2097 42.7224C22.3129 42.7819 22.6798 42.9547 23.0607 42.6763L27.8318 39.1889C28.172 38.9402 28.6343 38.9402 28.9743 39.1889L33.7455 42.6763C34.1264 42.9551 34.4933 42.7821 34.5965 42.7224C34.6998 42.6628 35.033 42.4321 34.9819 41.9634L34.3426 36.0939C34.2969 35.6754 34.5281 35.2757 34.9139 35.1058L40.3242 32.7238C40.756 32.5336 40.7896 32.1302 40.7896 32.0111C40.7896 31.8918 40.756 31.4882 40.3242 31.2982L34.9139 28.9162C34.5282 28.7464 34.297 28.3466 34.3426 27.9281L34.9819 22.0586C35.033 21.5899 34.6998 21.3592 34.5965 21.2996C34.4931 21.2399 34.1263 21.0673 33.7455 21.3456L28.9744 24.8331C28.6342 25.0818 28.1719 25.0818 27.8319 24.8331L23.0609 21.3456C22.9016 21.2294 22.745 21.1918 22.6091 21.1918Z" fill="#CAE7FC"/>
</svg>
