<svg width="64" height="52" viewBox="0 0 64 52" fill="none" xmlns="http://www.w3.org/2000/svg">
<path d="M31.3965 14.4901H19.3208C18.6543 14.4901 18.1133 13.9496 18.1133 13.2826C18.1133 12.6161 18.6543 12.0751 19.3208 12.0751H31.396C32.73 12.0756 33.8115 10.994 33.8115 9.66054C33.8115 9.64882 33.8115 9.6371 33.811 9.62539C33.793 8.2914 32.6973 7.22499 31.3638 7.24306C30.3516 7.25673 29.4556 7.90029 29.1187 8.85488C28.8965 9.48378 28.207 9.81337 27.5781 9.59121C26.9492 9.36904 26.6191 8.67958 26.8413 8.05068C27.7285 5.53456 30.4868 4.21425 33.0029 5.10146C34.9116 5.77431 36.1982 7.5663 36.2261 9.59023C36.2651 12.2572 34.1338 14.4511 31.4668 14.4896C31.4434 14.4901 31.4199 14.4901 31.3965 14.4901Z" fill="#AEDEE2"/>
<path d="M31.396 0C27.6675 0.0107422 24.2749 2.15625 22.6665 5.51953C22.3945 6.12842 22.6675 6.84278 23.2769 7.11475C23.8652 7.37744 24.5571 7.13135 24.8472 6.55567C26.562 2.94043 30.8828 1.39941 34.4981 3.11377C38.1138 4.82862 39.6548 9.14942 37.94 12.7647C36.7412 15.293 34.1939 16.9048 31.396 16.9053H1.20752C0.540528 16.9053 0 17.4463 0 18.1128C0 18.7798 0.540528 19.3203 1.20752 19.3203H31.3955C36.731 19.3203 41.0562 14.9956 41.0562 9.66016C41.0562 4.3252 36.731 0 31.396 0Z" fill="#8ACED8"/>
<path d="M54.3394 47.0938C52.292 47.0942 50.4668 45.8037 49.7847 43.873C49.5625 43.2441 49.8921 42.5542 50.521 42.3325C51.1499 42.1104 51.8398 42.4399 52.062 43.0688C52.3853 44.063 53.3301 44.7207 54.3745 44.6787C55.6709 44.6367 56.7124 43.5952 56.7544 42.2983C56.7734 40.9648 55.7085 39.8682 54.3745 39.8486C54.3628 39.8486 54.3511 39.8486 54.3394 39.8486H42.2642C41.5972 39.8486 41.0566 39.3076 41.0566 38.6411C41.0566 37.9741 41.5972 37.4336 42.2642 37.4336H54.3394C57.0068 37.4331 59.1699 39.5952 59.1699 42.2632C59.1699 42.2866 59.1699 42.3101 59.1694 42.3335C59.1143 44.9395 57.0151 47.0386 54.4092 47.0938H54.3394Z" fill="#AEDEE2"/>
<path d="M54.3394 32.6035H27.7739C27.1069 32.6035 26.5664 33.144 26.5664 33.811C26.5664 34.4775 27.1069 35.0186 27.7739 35.0186H54.3394C58.3408 35.0195 61.5835 38.2642 61.5825 42.2656C61.5811 46.2671 58.3364 49.5098 54.335 49.5088C51.5371 49.5078 48.9898 47.896 47.791 45.3682C47.5191 44.7593 46.8047 44.4858 46.1958 44.7578C45.5869 45.0298 45.314 45.7441 45.5859 46.353C45.5938 46.3701 45.6016 46.3872 45.6104 46.4043C47.897 51.2246 53.6582 53.2783 58.4785 50.9912C63.2988 48.7046 65.3526 42.9434 63.0659 38.123C61.4668 34.7524 58.0698 32.604 54.3394 32.6035Z" fill="#8ACED8"/>
<path d="M20.5283 26.5659H9.66065C8.99365 26.5659 8.45312 26.0249 8.45312 25.3584C8.45312 24.6914 8.99365 24.1509 9.66065 24.1509H20.5283C21.1953 24.1509 21.7358 24.6914 21.7358 25.3584C21.7358 26.0249 21.1953 26.5659 20.5283 26.5659Z" fill="#B3E4E8"/>
<path d="M28.981 26.5659H25.3579C24.6914 26.5659 24.1504 26.0249 24.1504 25.3584C24.1504 24.6914 24.6914 24.1509 25.3579 24.1509H28.981C29.6475 24.1509 30.1885 24.6914 30.1885 25.3584C30.1885 26.0249 29.6475 26.5659 28.981 26.5659Z" fill="#B3E4E8"/>
<path d="M48.3013 26.5659H33.811C33.144 26.5659 32.6035 26.0249 32.6035 25.3584C32.6035 24.6914 33.144 24.1509 33.811 24.1509H48.3013C48.9683 24.1509 49.5088 24.6914 49.5088 25.3584C49.5088 26.0249 48.9683 26.5659 48.3013 26.5659Z" fill="#B3E4E8"/>
<path d="M14.4902 14.4902H10.8677C10.2007 14.4902 9.66016 13.9497 9.66016 13.2827C9.66016 12.6162 10.2007 12.0752 10.8677 12.0752H14.4902C15.1572 12.0752 15.6978 12.6162 15.6978 13.2827C15.6978 13.9497 15.1572 14.4902 14.4902 14.4902Z" fill="#AEDEE2"/>
<path d="M6.0376 14.4902H1.20752C0.540528 14.4902 0 13.9497 0 13.2827C0 12.6162 0.540528 12.0752 1.20752 12.0752H6.0376C6.70459 12.0752 7.24512 12.6162 7.24512 13.2827C7.24512 13.9497 6.70459 14.4902 6.0376 14.4902Z" fill="#AEDEE2"/>
<path d="M4.83008 26.5659H1.20752C0.540528 26.5659 0 26.0249 0 25.3579C0 24.6914 0.540528 24.1509 1.20752 24.1509H4.83008C5.49707 24.1509 6.0376 24.6914 6.0376 25.3579C6.0376 26.0249 5.49707 26.5659 4.83008 26.5659Z" fill="#B3E4E8"/>
<path d="M37.4336 39.8486H33.811C33.144 39.8486 32.6035 39.3081 32.6035 38.6411C32.6035 37.9741 33.144 37.4336 33.811 37.4336H37.4336C38.1001 37.4336 38.6411 37.9741 38.6411 38.6411C38.6411 39.3081 38.1001 39.8486 37.4336 39.8486Z" fill="#AEDEE2"/>
<path d="M28.981 39.8486H25.3579C24.6914 39.8486 24.1504 39.3081 24.1504 38.6411C24.1504 37.9741 24.6914 37.4336 25.3579 37.4336H28.981C29.6475 37.4336 30.1885 37.9741 30.1885 38.6411C30.1885 39.3081 29.6475 39.8486 28.981 39.8486Z" fill="#AEDEE2"/>
<path d="M22.9434 35.0186H19.3208C18.6543 35.0186 18.1133 34.478 18.1133 33.811C18.1133 33.144 18.6543 32.6035 19.3208 32.6035H22.9434C23.6104 32.6035 24.1509 33.144 24.1509 33.811C24.1509 34.478 23.6104 35.0186 22.9434 35.0186Z" fill="#8ACED8"/>
<path d="M14.4897 35.0186H12.0747C11.4077 35.0186 10.8672 34.478 10.8672 33.811C10.8672 33.144 11.4077 32.6035 12.0747 32.6035H14.4897C15.1567 32.6035 15.6973 33.144 15.6973 33.811C15.6973 34.478 15.1567 35.0186 14.4897 35.0186Z" fill="#8ACED8"/>
<path d="M20.5273 39.8486H12.0747C11.4077 39.8486 10.8672 39.3081 10.8672 38.6411C10.8672 37.9741 11.4077 37.4336 12.0747 37.4336H20.5273C21.1943 37.4336 21.7349 37.9741 21.7349 38.6411C21.7349 39.3081 21.1943 39.8486 20.5273 39.8486Z" fill="#AEDEE2"/>
</svg>
