<svg width="36" height="38" viewBox="0 0 36 38" fill="none" xmlns="http://www.w3.org/2000/svg">
<mask id="path-1-outside-1" maskUnits="userSpaceOnUse" x="0" y="19.6875" width="36" height="18" fill="black">
<rect fill="white" y="19.6875" width="36" height="18"/>
<path d="M33.0625 20.6875H31.9375H9.44341C9.44228 20.6875 9.44116 20.6875 9.44003 20.6875H3.8125H2.6875C1.75698 20.6875 1 21.4446 1 22.375C1 22.6856 1.25186 22.9375 1.5625 22.9375C1.87314 22.9375 2.125 22.6856 2.125 22.375C2.125 22.0649 2.37735 21.8125 2.6875 21.8125H3.14847L1.84255 29.6483C1.64498 30.8341 1.87673 32.0548 2.4952 33.0855L3.25 34.3433V36.3672C3.25 36.7161 3.53392 37 3.88281 37H31.8672C32.2161 37 32.5 36.7161 32.5 36.3672V34.3433L33.2548 33.0855C33.8733 32.0548 34.105 30.8341 33.9074 29.6483L32.6015 21.8125H33.0625C33.3727 21.8125 33.625 22.0649 33.625 22.375C33.625 22.6856 33.8769 22.9375 34.1875 22.9375C34.4981 22.9375 34.75 22.6856 34.75 22.375C34.75 21.4446 33.993 20.6875 33.0625 20.6875ZM29.4776 32.5067L28.8066 33.625H27.1434L27.5408 32.6315C27.8491 31.8607 27.9636 31.0172 27.872 30.1921L26.941 21.8125H28.6485L29.9853 29.8333C30.1389 30.7555 29.9586 31.705 29.4776 32.5067ZM24.2455 33.625L24.6206 32.3109C24.7871 31.7278 24.8473 31.1257 24.7993 30.521L24.1088 21.8125H25.809L26.7539 30.3163C26.8251 30.958 26.7361 31.6141 26.4962 32.2135L25.9317 33.625H24.2455ZM21.2826 33.625L21.3983 31.5682C21.405 31.4479 21.4075 31.3257 21.4056 31.2048L21.2589 21.8125H22.9803L23.6778 30.6099C23.7151 31.0802 23.6684 31.5485 23.5389 32.002L23.0756 33.625H21.2826ZM18.4375 33.625V21.8125H20.1337L20.2807 31.2224C20.2822 31.3164 20.2803 31.4116 20.275 31.5051L20.1558 33.625H18.4375ZM15.5909 33.625L15.4593 31.5196C15.4528 31.4152 15.4504 31.3096 15.4522 31.2055L15.6154 21.8125H17.3125V33.625H15.5909ZM6.94345 33.625L6.27238 32.5067C5.79138 31.705 5.61109 30.7556 5.76473 29.8333L7.10151 21.8125H8.80905L7.87797 30.1921C7.78628 31.0172 7.90082 31.8607 8.20914 32.6315L8.60655 33.625H6.94345ZM9.81831 33.625L9.2537 32.2136C9.01387 31.6142 8.92478 30.9581 8.99608 30.3164L9.94101 21.8125H11.6408L10.9458 30.5151C10.8973 31.1238 10.9581 31.7301 11.1269 32.317L11.503 33.625H9.81831ZM12.6736 33.625L12.2081 32.0061C12.0768 31.5497 12.0294 31.0781 12.0673 30.6046L12.7694 21.8125H14.4902L14.3275 31.1859C14.3251 31.3197 14.3282 31.4555 14.3365 31.5897L14.4638 33.625H12.6736ZM2.95223 29.8333L4.28901 21.8125H5.96104L4.65505 29.6483C4.45748 30.8341 4.68923 32.0548 5.3077 33.0855L5.63141 33.625H4.13095L3.45988 32.5067C2.97888 31.705 2.79859 30.7555 2.95223 29.8333ZM31.375 35.875H4.375V34.75H6.62444C6.62479 34.75 6.62514 34.7501 6.62549 34.7501C6.62584 34.7501 6.6262 34.75 6.62655 34.75H9.43581C9.43645 34.75 9.43701 34.7501 9.43764 34.7501C9.43863 34.7501 9.43961 34.75 9.44059 34.75H12.248C12.2486 34.75 12.2492 34.7501 12.2497 34.7501C12.2504 34.7501 12.2511 34.75 12.2517 34.75H23.4983C23.4989 34.75 23.4996 34.7501 23.5003 34.7501C23.5008 34.7501 23.5014 34.75 23.502 34.75H26.3094C26.3104 34.75 26.3114 34.7501 26.3124 34.7501C26.313 34.7501 26.3136 34.75 26.3142 34.75H29.1235C29.1238 34.75 29.1242 34.7501 29.1245 34.7501C29.1249 34.7501 29.1252 34.75 29.1256 34.75H31.375V35.875ZM32.2901 32.5067L31.6191 33.625H30.1186L30.4423 33.0855C31.0608 32.0548 31.2925 30.8341 31.0949 29.6483L29.789 21.8125H31.461L32.7978 29.8333C32.9514 30.7555 32.7711 31.705 32.2901 32.5067Z"/>
</mask>
<path d="M33.0625 20.6875H31.9375H9.44341C9.44228 20.6875 9.44116 20.6875 9.44003 20.6875H3.8125H2.6875C1.75698 20.6875 1 21.4446 1 22.375C1 22.6856 1.25186 22.9375 1.5625 22.9375C1.87314 22.9375 2.125 22.6856 2.125 22.375C2.125 22.0649 2.37735 21.8125 2.6875 21.8125H3.14847L1.84255 29.6483C1.64498 30.8341 1.87673 32.0548 2.4952 33.0855L3.25 34.3433V36.3672C3.25 36.7161 3.53392 37 3.88281 37H31.8672C32.2161 37 32.5 36.7161 32.5 36.3672V34.3433L33.2548 33.0855C33.8733 32.0548 34.105 30.8341 33.9074 29.6483L32.6015 21.8125H33.0625C33.3727 21.8125 33.625 22.0649 33.625 22.375C33.625 22.6856 33.8769 22.9375 34.1875 22.9375C34.4981 22.9375 34.75 22.6856 34.75 22.375C34.75 21.4446 33.993 20.6875 33.0625 20.6875ZM29.4776 32.5067L28.8066 33.625H27.1434L27.5408 32.6315C27.8491 31.8607 27.9636 31.0172 27.872 30.1921L26.941 21.8125H28.6485L29.9853 29.8333C30.1389 30.7555 29.9586 31.705 29.4776 32.5067ZM24.2455 33.625L24.6206 32.3109C24.7871 31.7278 24.8473 31.1257 24.7993 30.521L24.1088 21.8125H25.809L26.7539 30.3163C26.8251 30.958 26.7361 31.6141 26.4962 32.2135L25.9317 33.625H24.2455ZM21.2826 33.625L21.3983 31.5682C21.405 31.4479 21.4075 31.3257 21.4056 31.2048L21.2589 21.8125H22.9803L23.6778 30.6099C23.7151 31.0802 23.6684 31.5485 23.5389 32.002L23.0756 33.625H21.2826ZM18.4375 33.625V21.8125H20.1337L20.2807 31.2224C20.2822 31.3164 20.2803 31.4116 20.275 31.5051L20.1558 33.625H18.4375ZM15.5909 33.625L15.4593 31.5196C15.4528 31.4152 15.4504 31.3096 15.4522 31.2055L15.6154 21.8125H17.3125V33.625H15.5909ZM6.94345 33.625L6.27238 32.5067C5.79138 31.705 5.61109 30.7556 5.76473 29.8333L7.10151 21.8125H8.80905L7.87797 30.1921C7.78628 31.0172 7.90082 31.8607 8.20914 32.6315L8.60655 33.625H6.94345ZM9.81831 33.625L9.2537 32.2136C9.01387 31.6142 8.92478 30.9581 8.99608 30.3164L9.94101 21.8125H11.6408L10.9458 30.5151C10.8973 31.1238 10.9581 31.7301 11.1269 32.317L11.503 33.625H9.81831ZM12.6736 33.625L12.2081 32.0061C12.0768 31.5497 12.0294 31.0781 12.0673 30.6046L12.7694 21.8125H14.4902L14.3275 31.1859C14.3251 31.3197 14.3282 31.4555 14.3365 31.5897L14.4638 33.625H12.6736ZM2.95223 29.8333L4.28901 21.8125H5.96104L4.65505 29.6483C4.45748 30.8341 4.68923 32.0548 5.3077 33.0855L5.63141 33.625H4.13095L3.45988 32.5067C2.97888 31.705 2.79859 30.7555 2.95223 29.8333ZM31.375 35.875H4.375V34.75H6.62444C6.62479 34.75 6.62514 34.7501 6.62549 34.7501C6.62584 34.7501 6.6262 34.75 6.62655 34.75H9.43581C9.43645 34.75 9.43701 34.7501 9.43764 34.7501C9.43863 34.7501 9.43961 34.75 9.44059 34.75H12.248C12.2486 34.75 12.2492 34.7501 12.2497 34.7501C12.2504 34.7501 12.2511 34.75 12.2517 34.75H23.4983C23.4989 34.75 23.4996 34.7501 23.5003 34.7501C23.5008 34.7501 23.5014 34.75 23.502 34.75H26.3094C26.3104 34.75 26.3114 34.7501 26.3124 34.7501C26.313 34.7501 26.3136 34.75 26.3142 34.75H29.1235C29.1238 34.75 29.1242 34.7501 29.1245 34.7501C29.1249 34.7501 29.1252 34.75 29.1256 34.75H31.375V35.875ZM32.2901 32.5067L31.6191 33.625H30.1186L30.4423 33.0855C31.0608 32.0548 31.2925 30.8341 31.0949 29.6483L29.789 21.8125H31.461L32.7978 29.8333C32.9514 30.7555 32.7711 31.705 32.2901 32.5067Z" fill="#C4C4C4"/>
<path d="M33.0625 20.6875H31.9375H9.44341C9.44228 20.6875 9.44116 20.6875 9.44003 20.6875H3.8125H2.6875C1.75698 20.6875 1 21.4446 1 22.375C1 22.6856 1.25186 22.9375 1.5625 22.9375C1.87314 22.9375 2.125 22.6856 2.125 22.375C2.125 22.0649 2.37735 21.8125 2.6875 21.8125H3.14847L1.84255 29.6483C1.64498 30.8341 1.87673 32.0548 2.4952 33.0855L3.25 34.3433V36.3672C3.25 36.7161 3.53392 37 3.88281 37H31.8672C32.2161 37 32.5 36.7161 32.5 36.3672V34.3433L33.2548 33.0855C33.8733 32.0548 34.105 30.8341 33.9074 29.6483L32.6015 21.8125H33.0625C33.3727 21.8125 33.625 22.0649 33.625 22.375C33.625 22.6856 33.8769 22.9375 34.1875 22.9375C34.4981 22.9375 34.75 22.6856 34.75 22.375C34.75 21.4446 33.993 20.6875 33.0625 20.6875ZM29.4776 32.5067L28.8066 33.625H27.1434L27.5408 32.6315C27.8491 31.8607 27.9636 31.0172 27.872 30.1921L26.941 21.8125H28.6485L29.9853 29.8333C30.1389 30.7555 29.9586 31.705 29.4776 32.5067ZM24.2455 33.625L24.6206 32.3109C24.7871 31.7278 24.8473 31.1257 24.7993 30.521L24.1088 21.8125H25.809L26.7539 30.3163C26.8251 30.958 26.7361 31.6141 26.4962 32.2135L25.9317 33.625H24.2455ZM21.2826 33.625L21.3983 31.5682C21.405 31.4479 21.4075 31.3257 21.4056 31.2048L21.2589 21.8125H22.9803L23.6778 30.6099C23.7151 31.0802 23.6684 31.5485 23.5389 32.002L23.0756 33.625H21.2826ZM18.4375 33.625V21.8125H20.1337L20.2807 31.2224C20.2822 31.3164 20.2803 31.4116 20.275 31.5051L20.1558 33.625H18.4375ZM15.5909 33.625L15.4593 31.5196C15.4528 31.4152 15.4504 31.3096 15.4522 31.2055L15.6154 21.8125H17.3125V33.625H15.5909ZM6.94345 33.625L6.27238 32.5067C5.79138 31.705 5.61109 30.7556 5.76473 29.8333L7.10151 21.8125H8.80905L7.87797 30.1921C7.78628 31.0172 7.90082 31.8607 8.20914 32.6315L8.60655 33.625H6.94345ZM9.81831 33.625L9.2537 32.2136C9.01387 31.6142 8.92478 30.9581 8.99608 30.3164L9.94101 21.8125H11.6408L10.9458 30.5151C10.8973 31.1238 10.9581 31.7301 11.1269 32.317L11.503 33.625H9.81831ZM12.6736 33.625L12.2081 32.0061C12.0768 31.5497 12.0294 31.0781 12.0673 30.6046L12.7694 21.8125H14.4902L14.3275 31.1859C14.3251 31.3197 14.3282 31.4555 14.3365 31.5897L14.4638 33.625H12.6736ZM2.95223 29.8333L4.28901 21.8125H5.96104L4.65505 29.6483C4.45748 30.8341 4.68923 32.0548 5.3077 33.0855L5.63141 33.625H4.13095L3.45988 32.5067C2.97888 31.705 2.79859 30.7555 2.95223 29.8333ZM31.375 35.875H4.375V34.75H6.62444C6.62479 34.75 6.62514 34.7501 6.62549 34.7501C6.62584 34.7501 6.6262 34.75 6.62655 34.75H9.43581C9.43645 34.75 9.43701 34.7501 9.43764 34.7501C9.43863 34.7501 9.43961 34.75 9.44059 34.75H12.248C12.2486 34.75 12.2492 34.7501 12.2497 34.7501C12.2504 34.7501 12.2511 34.75 12.2517 34.75H23.4983C23.4989 34.75 23.4996 34.7501 23.5003 34.7501C23.5008 34.7501 23.5014 34.75 23.502 34.75H26.3094C26.3104 34.75 26.3114 34.7501 26.3124 34.7501C26.313 34.7501 26.3136 34.75 26.3142 34.75H29.1235C29.1238 34.75 29.1242 34.7501 29.1245 34.7501C29.1249 34.7501 29.1252 34.75 29.1256 34.75H31.375V35.875ZM32.2901 32.5067L31.6191 33.625H30.1186L30.4423 33.0855C31.0608 32.0548 31.2925 30.8341 31.0949 29.6483L29.789 21.8125H31.461L32.7978 29.8333C32.9514 30.7555 32.7711 31.705 32.2901 32.5067Z" stroke="#C4C4C4" stroke-width="0.8" mask="url(#path-1-outside-1)"/>
<path d="M7.1875 19.7625C7.6086 19.7625 7.95 19.4211 7.95 19V2.325H27.8V19C27.8 19.4211 28.1414 19.7625 28.5625 19.7625C28.9836 19.7625 29.325 19.4211 29.325 19V2.125C29.325 1.39425 28.7308 0.8 28 0.8H7.75C7.01925 0.8 6.425 1.39425 6.425 2.125V19C6.425 19.4211 6.7664 19.7625 7.1875 19.7625Z" fill="#C4C4C4" stroke="#C4C4C4" stroke-width="0.4"/>
<path d="M26.3125 19.7625C26.7336 19.7625 27.075 19.4211 27.075 19V3.8125C27.075 3.3914 26.7336 3.05 26.3125 3.05H9.4375C9.0164 3.05 8.675 3.3914 8.675 3.8125V19C8.675 19.4211 9.0164 19.7625 9.4375 19.7625C9.8586 19.7625 10.2 19.4211 10.2 19V10.7625H15.6249C16.046 10.7625 16.3874 10.4211 16.3874 10C16.3874 9.5789 16.046 9.2375 15.6249 9.2375H10.2V4.575H17.1125V19C17.1125 19.4211 17.4539 19.7625 17.875 19.7625C18.2961 19.7625 18.6375 19.4211 18.6375 19V10.7625H25.55V19C25.55 19.4211 25.8914 19.7625 26.3125 19.7625ZM18.6375 9.2375V4.575H25.55V9.2375H18.6375Z" fill="#C4C4C4" stroke="#C4C4C4" stroke-width="0.4"/>
</svg>
