<svg width="32" height="36" viewBox="0 0 32 36" fill="none" xmlns="http://www.w3.org/2000/svg">
<path d="M31.4465 29.802L26.5992 20.4664C28.0354 18.3121 28.9331 15.6191 28.9331 13.1057C28.9331 5.9245 23.0086 0 15.8274 0C8.64617 0 2.72168 5.9245 2.72168 13.1057C2.72168 15.7987 3.61933 18.4916 5.05557 20.646L0.208255 29.802C-0.509866 31.0587 0.746846 32.6745 2.18309 32.3154L5.77369 31.4178L7.0304 34.8289C7.56899 36.2651 9.54383 36.4446 10.2619 35.0084L14.9297 26.2114C15.6479 26.2114 16.1864 26.2114 16.9046 26.2114L21.5723 35.0084C22.2905 36.2651 24.2653 36.2651 24.8039 34.8289L26.0606 31.4178L29.4717 32.3154C30.9079 32.6745 32.1646 31.0587 31.4465 29.802ZM8.8257 29.802L8.46664 28.7248C8.28711 28.0067 7.56899 27.6476 6.85087 27.6476C6.49181 27.6476 5.59416 28.0067 5.2351 28.0067L7.56899 23.3389C8.64617 24.2366 10.0824 24.9547 11.1596 25.4933L8.8257 29.802ZM14.0321 22.4413C9.54383 21.7232 6.13275 17.7735 6.13275 12.9262C6.13275 7.7198 10.4415 3.41107 15.8274 3.41107C21.0338 3.41107 25.3425 7.7198 25.3425 12.9262C25.3425 19.3893 19.5975 23.5185 14.0321 22.4413ZM25.3425 27.6476C24.4448 27.4681 23.5472 27.8272 23.1881 28.7248L22.8291 29.9815L20.4952 25.4933C21.9314 24.9547 23.1881 24.057 24.0858 23.3389L26.5992 28.0067L25.3425 27.6476Z" fill="#C4C4C4"/>
</svg>
