<svg width="38" height="29" viewBox="0 0 38 29" fill="none" xmlns="http://www.w3.org/2000/svg">
<path d="M37.25 17.1719C37.25 15.3565 35.9596 13.8386 34.2482 13.4846L33.1088 8.92718C33.5222 8.48061 33.7344 7.91231 33.7344 7.32812C33.7344 6.02688 32.6762 4.96875 31.375 4.96875H26V3.10938C26 1.80813 24.9419 0.75 23.6406 0.75H3.10938C1.80813 0.75 0.75 1.80813 0.75 3.10938V21.3906C0.75 22.6919 1.80813 23.75 3.10938 23.75H5.39753C5.52761 26.0986 7.47884 27.9688 9.85938 27.9688C12.2399 27.9688 14.1911 26.0986 14.3212 23.75H26.9132C27.0432 26.0986 28.9945 27.9688 31.375 27.9688C33.8233 27.9688 35.8175 25.9906 35.8435 23.5484C36.6706 23.182 37.25 22.3533 37.25 21.3906V17.1719ZM26 9.6875H31.3339L32.2636 13.4062H27.3478L28.5333 12.2208C28.9056 11.8485 28.9056 11.2453 28.5333 10.873C28.161 10.5007 27.5578 10.5007 27.1855 10.873C27.1855 10.873 27.1855 10.873 27.1855 10.873L26 12.0582V9.6875ZM31.8281 7.32812C31.8281 7.57815 31.625 7.78125 31.375 7.78125H26V6.875H31.375C31.6247 6.875 31.8281 7.07838 31.8281 7.32812ZM9.85938 26.0625C8.44673 26.0625 7.29688 24.9126 7.29688 23.5C7.29688 22.0687 8.46697 20.9375 9.85938 20.9375C11.2549 20.9375 12.4219 22.0716 12.4219 23.5C12.4219 24.9126 11.272 26.0625 9.85938 26.0625ZM24.0938 21.8438H14.0096C13.3427 20.176 11.7066 19.0312 9.85938 19.0312C8.01148 19.0312 6.37479 20.1767 5.70879 21.8438H3.10938C2.85963 21.8438 2.65625 21.6404 2.65625 21.3906V3.10938C2.65625 2.85963 2.85963 2.65625 3.10938 2.65625H23.6406C23.8904 2.65625 24.0938 2.85963 24.0938 3.10938V21.8438ZM31.375 26.0625C29.9624 26.0625 28.8125 24.9126 28.8125 23.5C28.8125 22.0687 29.9826 20.9375 31.375 20.9375C32.7706 20.9375 33.9375 22.0716 33.9375 23.5C33.9375 24.9126 32.7876 26.0625 31.375 26.0625ZM31.375 19.0312C29.5271 19.0312 27.8904 20.1767 27.2244 21.8438H26V15.3125H33.4844C34.1607 15.3125 34.7546 15.676 35.08 16.2188H33.4844C32.9579 16.2188 32.5312 16.6454 32.5312 17.1719C32.5312 17.6983 32.9579 18.125 33.4844 18.125H35.3438V21.3906C35.3438 21.4079 35.3428 21.425 35.3409 21.4418C34.5869 19.9947 33.0699 19.0312 31.375 19.0312Z" fill="#C4C4C4" stroke="#C4C4C4" stroke-width="0.5"/>
</svg>
