<svg width="32" height="24" viewBox="0 0 32 24" fill="none" xmlns="http://www.w3.org/2000/svg">
<path fill-rule="evenodd" clip-rule="evenodd" d="M28.1875 24H3.00037C1.34317 24 0 22.6568 0 20.9996V3.00037C0 1.34317 1.34317 0 3.00037 0H28.187C29.8442 0 31.1874 1.34317 31.1874 3.00037V20.9996C31.1879 22.6568 29.8442 24 28.1875 24ZM3.58545 19.2059C3.58545 19.869 4.12301 20.406 4.7856 20.406H26.4038C27.0669 20.406 27.6039 19.8685 27.6039 19.2059V8.57007L16.397 15.3614C16.1595 15.4959 15.9005 15.5539 15.644 15.5549C15.6215 15.5569 15.5989 15.5559 15.5764 15.5564C15.5539 15.5554 15.5314 15.5564 15.5089 15.5549C15.2529 15.5534 14.9939 15.4954 14.7563 15.3614L3.58545 8.59207V19.2059ZM26.4043 3.61445H4.7861C4.25803 3.61445 3.81448 3.95799 3.65396 4.43205C3.68946 4.44856 3.72647 4.45956 3.76097 4.47906L15.5769 11.6395L27.3929 4.47906C27.4379 4.45356 27.4854 4.43806 27.5319 4.41755C27.3674 3.95099 26.9269 3.61445 26.4043 3.61445Z" fill="#F13F2B"/>
</svg>
