<svg width="111" height="65" viewBox="0 0 111 65" fill="none" xmlns="http://www.w3.org/2000/svg">
<path d="M9.72891 5.03876V58.9535H1" stroke="#202020" stroke-width="2" stroke-linecap="round"/>
<path d="M17.9619 16.3737L21.0871 12.8875" stroke="#202020" stroke-width="2" stroke-linecap="round"/>
<path d="M22.9102 16.0832L26.0353 12.5969" stroke="#202020" stroke-width="2" stroke-linecap="round"/>
<path d="M25.5137 18.9884L31.2431 12.5969" stroke="#202020" stroke-width="2" stroke-linecap="round"/>
<path d="M17.7021 21.8936L19.7856 19.5695" stroke="#202020" stroke-width="2" stroke-linecap="round"/>
<path d="M18.2227 27.1231L20.3061 24.7989" stroke="#202020" stroke-width="2" stroke-linecap="round"/>
<path d="M22.9102 21.8936L22.3893 22.4747" stroke="#202020" stroke-width="2" stroke-linecap="round"/>
<path d="M101.846 5.03876V58.9535H109.456" stroke="#202020" stroke-width="2" stroke-linecap="round"/>
<rect x="3.4375" y="1" width="102.921" height="3.24223" rx="1.62111" stroke="#202020" stroke-width="2"/>
<rect x="3.40918" y="59.5928" width="102.921" height="4.40717" rx="2.20358" stroke="#202020" stroke-width="2"/>
<rect x="14.0576" y="8.55817" width="83.2372" height="49.8992" rx="2" stroke="#202020" stroke-width="2" stroke-linecap="round" stroke-linejoin="round"/>
<line y1="-1" x2="51.3597" y2="-1" transform="matrix(-0.0194705 0.99981 -1 0 71.2559 7.80005)" stroke="#202020" stroke-width="2"/>
<line x1="41.2012" y1="7.79999" x2="41.2012" y2="59.15" stroke="#202020" stroke-width="2"/>
</svg>
