<svg width="90" height="66" viewBox="0 0 90 66" fill="none" xmlns="http://www.w3.org/2000/svg">
<path d="M52.0752 64.9999V11.4499C52.0752 9.79309 53.4183 8.44995 55.0752 8.44995H79.1294C80.7862 8.44995 82.1294 9.7931 82.1294 11.45V64.9999" stroke="#202020" stroke-width="2" stroke-linecap="round" stroke-linejoin="round"/>
<path d="M5.38086 5.19995L4.38086 65" stroke="#202020" stroke-width="2" stroke-linecap="round"/>
<path d="M13.4893 16.4682L16.6425 12.9618" stroke="#202020" stroke-width="2" stroke-linecap="round"/>
<path d="M18.4824 16.1759L21.6357 12.6696" stroke="#202020" stroke-width="2" stroke-linecap="round"/>
<path d="M21.1094 19.0979L26.8903 12.6696" stroke="#202020" stroke-width="2" stroke-linecap="round"/>
<path d="M13.2275 22.0198L15.3297 19.6823" stroke="#202020" stroke-width="2" stroke-linecap="round"/>
<path d="M13.7529 27.2795L15.8551 24.9419" stroke="#202020" stroke-width="2" stroke-linecap="round"/>
<path d="M18.4824 22.0197L17.9569 22.6041" stroke="#202020" stroke-width="2" stroke-linecap="round"/>
<path d="M48.1553 5.19995L48.1553 65" stroke="#202020" stroke-width="2" stroke-linecap="round"/>
<rect x="9.12012" y="8.60168" width="33.7466" height="46.1441" rx="2" stroke="#202020" stroke-width="2" stroke-linecap="round" stroke-linejoin="round"/>
<path d="M86.0498 5.19995L86.0498 65" stroke="#202020" stroke-width="2" stroke-linecap="round"/>
<rect x="1.46094" y="1" width="86.8559" height="3.0678" rx="1.5339" stroke="#202020" stroke-width="2"/>
<rect x="79.1899" y="47.7801" width="7.13994" height="1.96006" rx="0.980028" transform="rotate(90 79.1899 47.7801)" fill="#F2F5F7" stroke="#202020" stroke-width="1.96006" stroke-linecap="round" stroke-linejoin="round"/>
</svg>
