<svg width="111" height="65" viewBox="0 0 111 65" fill="none" xmlns="http://www.w3.org/2000/svg">
<path d="M9.72891 5.03882V58.9535H1" stroke="#202020" stroke-width="2" stroke-linecap="round"/>
<path d="M18.2012 15.5609L20.7645 12.5969" stroke="#202020" stroke-width="2" stroke-linecap="round"/>
<path d="M22.2588 15.314L24.8221 12.35" stroke="#202020" stroke-width="2" stroke-linecap="round"/>
<path d="M24.3955 17.784L29.0949 12.35" stroke="#202020" stroke-width="2" stroke-linecap="round"/>
<path d="M17.9873 20.2541L19.6962 18.2781" stroke="#202020" stroke-width="2" stroke-linecap="round"/>
<path d="M18.4141 24.7L20.1229 22.724" stroke="#202020" stroke-width="2" stroke-linecap="round"/>
<path d="M22.2588 20.254L21.8306 20.748" stroke="#202020" stroke-width="2" stroke-linecap="round"/>
<path d="M101.847 5.03882V58.9535H109.457" stroke="#202020" stroke-width="2" stroke-linecap="round"/>
<rect x="3.4375" y="1" width="102.921" height="3.24223" rx="1.62111" stroke="#202020" stroke-width="2"/>
<rect x="3.40918" y="59.5928" width="102.921" height="4.40717" rx="2.20358" stroke="#202020" stroke-width="2"/>
<rect x="14.0576" y="8.55811" width="83.2372" height="49.8992" rx="2" stroke="#202020" stroke-width="2" stroke-linecap="round" stroke-linejoin="round"/>
<line x1="77.7891" y1="7.80005" x2="77.7891" y2="59.15" stroke="#202020" stroke-width="2"/>
<line x1="56.8818" y1="7.80005" x2="56.8818" y2="59.15" stroke="#202020" stroke-width="2"/>
<line x1="35.3213" y1="7.80005" x2="35.3213" y2="59.15" stroke="#202020" stroke-width="2"/>
<rect x="52.9418" y="34.7801" width="7.13994" height="1.96006" rx="0.980028" transform="rotate(90 52.9418 34.7801)" fill="#F2F5F7" stroke="#202020" stroke-width="1.96006" stroke-linecap="round" stroke-linejoin="round"/>
<rect x="62.0883" y="34.7801" width="7.13994" height="1.96006" rx="0.980028" transform="rotate(90 62.0883 34.7801)" fill="#F2F5F7" stroke="#202020" stroke-width="1.96006" stroke-linecap="round" stroke-linejoin="round"/>
</svg>
