<?xml version="1.0" encoding="UTF-8" standalone="no"?>
<svg
   xmlns:dc="http://purl.org/dc/elements/1.1/"
   xmlns:cc="http://creativecommons.org/ns#"
   xmlns:rdf="http://www.w3.org/1999/02/22-rdf-syntax-ns#"
   xmlns:svg="http://www.w3.org/2000/svg"
   xmlns="http://www.w3.org/2000/svg"
   version="1.1"
   id="svg2"
   fill="none"
   viewBox="0 0 109 109"
   height="109"
   width="109">
  <metadata
     id="metadata12">
    <rdf:RDF>
      <cc:Work
         rdf:about="">
        <dc:format>image/svg+xml</dc:format>
        <dc:type
           rdf:resource="http://purl.org/dc/dcmitype/StillImage" />
        <dc:title></dc:title>
      </cc:Work>
    </rdf:RDF>
  </metadata>
  <defs
     id="defs10" />
  <path
     id="circle4"
     d="M 54.5,0 C 24.44786,0 0,24.44786 0,54.5 0,84.55214 24.44786,109 54.5,109 84.55214,109 109,84.55214 109,54.5 109,24.44786 84.55214,0 54.5,0 Z m 0,8 C 80.228619,8 101,28.771381 101,54.5 101,80.228619 80.228619,101 54.5,101 28.771381,101 8,80.228619 8,54.5 8,28.771381 28.771381,8 54.5,8 Z"
     style="color:#000000;font-style:normal;font-variant:normal;font-weight:normal;font-stretch:normal;font-size:medium;line-height:normal;font-family:sans-serif;text-indent:0;text-align:start;text-decoration:none;text-decoration-line:none;text-decoration-style:solid;text-decoration-color:#000000;letter-spacing:normal;word-spacing:normal;text-transform:none;direction:ltr;block-progression:tb;writing-mode:lr-tb;baseline-shift:baseline;text-anchor:start;white-space:normal;clip-rule:nonzero;display:inline;overflow:visible;visibility:visible;opacity:1;isolation:auto;mix-blend-mode:normal;color-interpolation:sRGB;color-interpolation-filters:linearRGB;solid-color:#000000;solid-opacity:1;fill:#f13f2b;fill-opacity:1;fill-rule:nonzero;stroke:none;stroke-width:8;stroke-linecap:butt;stroke-linejoin:miter;stroke-miterlimit:4;stroke-dasharray:none;stroke-dashoffset:0;stroke-opacity:1;color-rendering:auto;image-rendering:auto;shape-rendering:auto;text-rendering:auto;enable-background:accumulate" />
  <path
     id="path6"
     d="m 46,67.4209 0,-24.8418 c 0,-1.5646 1.7157,-2.5233 3.0482,-1.7033 l 20.1839,12.4209 c 1.2691,0.781 1.2691,2.6256 0,3.4066 L 49.0482,69.1242 C 47.7157,69.9442 46,68.9855 46,67.4209 Z"
     style="fill:#f13f2b" />
</svg>
