<svg width="32" height="36" viewBox="0 0 32 36" fill="none" xmlns="http://www.w3.org/2000/svg">
<path d="M30.8327 22.2891C31.3348 21.7287 31.6406 20.989 31.6406 20.1797C31.6406 18.4352 30.221 17.0156 28.4766 17.0156H22.3355C22.9437 15.1699 23.2031 12.7209 23.2031 11.6712V10.6172C23.2031 8.29125 21.3103 6.39844 18.9844 6.39844H17.9297C17.4459 6.39844 17.0241 6.7275 16.9066 7.19719L16.3322 9.4957C15.5271 12.7146 12.9712 16.2661 10.3261 16.9116C9.86273 15.7388 8.71875 14.9062 7.38281 14.9062H1.05469C0.4725 14.9062 0 15.3787 0 15.9609V34.9453C0 35.5275 0.4725 36 1.05469 36H7.38281C8.6407 36 9.72914 35.2624 10.2389 34.1965L13.8628 35.4045C15.0476 35.7996 16.2823 36 17.5317 36H26.3672C28.1116 36 29.5312 34.5804 29.5312 32.8359C29.5312 32.4246 29.4525 32.0309 29.3091 31.6702C30.6506 31.3038 31.6406 30.0741 31.6406 28.6172C31.6406 27.8079 31.3348 27.0682 30.8327 26.5078C31.3348 25.9474 31.6406 25.2077 31.6406 24.3984C31.6406 23.5891 31.3348 22.8495 30.8327 22.2891ZM8.4375 32.8359C8.4375 33.4174 7.9643 33.8906 7.38281 33.8906H2.10938V17.0156H7.38281C7.9643 17.0156 8.4375 17.4888 8.4375 18.0703V32.8359ZM26.3672 23.3438H28.4766C29.058 23.3438 29.5312 23.817 29.5312 24.3984C29.5312 24.9799 29.058 25.4531 28.4766 25.4531H26.3672C25.785 25.4531 25.3125 25.9256 25.3125 26.5078C25.3125 27.09 25.785 27.5625 26.3672 27.5625H28.4766C29.058 27.5625 29.5312 28.0357 29.5312 28.6172C29.5312 29.1987 29.058 29.6719 28.4766 29.6719H26.3672C25.785 29.6719 25.3125 30.1444 25.3125 30.7266C25.3125 31.3088 25.785 31.7812 26.3672 31.7812C26.9487 31.7812 27.4219 32.2545 27.4219 32.8359C27.4219 33.4174 26.9487 33.8906 26.3672 33.8906H17.5317C16.5094 33.8906 15.499 33.7268 14.5294 33.4034L10.5469 32.0759V19.0252C12.2013 18.7109 13.8206 17.6632 15.2824 15.9483C16.7098 14.2734 17.8671 12.053 18.3783 10.0076L18.753 8.50781H18.9844C20.1473 8.50781 21.0938 9.45422 21.0938 10.6172V11.6712C21.0938 13.0873 20.6508 15.8034 20.0841 17.0156H17.9297C17.3475 17.0156 16.875 17.4881 16.875 18.0703C16.875 18.6525 17.3475 19.125 17.9297 19.125H28.4766C29.058 19.125 29.5312 19.5982 29.5312 20.1797C29.5312 20.7612 29.058 21.2344 28.4766 21.2344H26.3672C25.785 21.2344 25.3125 21.7069 25.3125 22.2891C25.3125 22.8713 25.785 23.3438 26.3672 23.3438Z" fill="#F13F2B"/>
<path d="M5.27344 31.7812C5.85593 31.7812 6.32812 31.3091 6.32812 30.7266C6.32812 30.1441 5.85593 29.6719 5.27344 29.6719C4.69095 29.6719 4.21875 30.1441 4.21875 30.7266C4.21875 31.3091 4.69095 31.7812 5.27344 31.7812Z" fill="#F13F2B"/>
<path d="M20.0391 0C19.4566 0 18.9844 0.472219 18.9844 1.05469V3.23438C18.9844 3.81684 19.4566 4.28906 20.0391 4.28906C20.6215 4.28906 21.0938 3.81684 21.0938 3.23438V1.05469C21.0938 0.472219 20.6215 0 20.0391 0Z" fill="#F13F2B"/>
<path d="M15.5654 4.65104L14.0739 3.1595C13.6621 2.74761 12.9942 2.74761 12.5824 3.1595C12.1705 3.57139 12.1705 4.23915 12.5824 4.65104L14.0739 6.14258C14.4857 6.5544 15.1536 6.55447 15.5654 6.14258C15.9773 5.73069 15.9773 5.06293 15.5654 4.65104Z" fill="#F13F2B"/>
<path d="M27.4971 3.1595C27.0853 2.74761 26.4174 2.74761 26.0055 3.1595L24.514 4.65097C24.1021 5.06286 24.1021 5.73062 24.514 6.14251C24.9258 6.5544 25.5936 6.55447 26.0055 6.14258L27.4971 4.65104C27.909 4.23915 27.909 3.57139 27.4971 3.1595Z" fill="#F13F2B"/>
</svg>
