<?xml version="1.0" encoding="UTF-8" standalone="no"?>
<svg
   xmlns:dc="http://purl.org/dc/elements/1.1/"
   xmlns:cc="http://creativecommons.org/ns#"
   xmlns:rdf="http://www.w3.org/1999/02/22-rdf-syntax-ns#"
   xmlns:svg="http://www.w3.org/2000/svg"
   xmlns="http://www.w3.org/2000/svg"
   viewBox="0 0 1432.1023 1431.9393"
   height="1431.9393"
   width="1432.1024"
   version="1.1"
   id="svg2">
  <metadata
     id="metadata8">
    <rdf:RDF>
      <cc:Work
         rdf:about="">
        <dc:format>image/svg+xml</dc:format>
        <dc:type
           rdf:resource="http://purl.org/dc/dcmitype/StillImage" />
        <dc:title></dc:title>
      </cc:Work>
    </rdf:RDF>
  </metadata>
  <defs
     id="defs6" />
  <path
     id="path3377"
     d="m 166.15826,1430.9082 c -56.6502,-5.9216 -107.929796,-38.1649 -138.199196,-86.896 -14.9193,-24.0188 -23.922,-50.7708 -26.8603,-79.8169 -1.46510004,-14.4833 -1.46510004,-1081.8048 0,-1096.28811 6.6513,-65.75039 45.8593,-121.5142 105.452396,-149.98034 18.753,-8.95781 39.321,-14.59897 61.356,-16.82801 14.4833,-1.46512 1081.80474,-1.46512 1096.28804,0 22.035,2.22904 42.603,7.8702 61.356,16.82801 59.5932,28.46614 98.8012,84.22995 105.4524,149.98034 1.4651,14.48331 1.4651,1081.80481 0,1096.28811 -6.5895,65.1403 -44.7737,120.1035 -103.4524,148.9119 -20.1147,9.8754 -40.2281,15.5569 -63.356,17.8965 -12.9332,1.3083 -1085.49954,1.2151 -1098.03694,-0.095 z m 1096.76464,-68.4213 c 25.6845,-3.7805 47.6435,-14.8609 66.1732,-33.3907 13.8981,-13.898 22.6713,-28.0809 28.8664,-46.6654 6.5663,-19.6982 6.0887,24.7245 6.0887,-566.37956 0,-591.10398 0.4776,-546.68132 -6.0887,-566.37946 -13.3905,-40.17028 -45.1016,-68.88952 -87.1279,-78.9076 l -9.2834,-2.21294 -545.00002,0 -545.00002,0 -9.5998,2.13951 c -45.9178,10.23365 -80.137896,44.22482 -91.187196,90.57709 l -2.213,9.2834 0,545 0,545.00006 2.1395,9.5999 c 9.3198,41.817 38.530496,74.2968 78.981096,87.82 18.92,6.3252 -23.6761,5.8744 565.25108,5.982 482.63066,0.088 538.45436,-0.061 548.00006,-1.4663 z M 404.48922,749.11764 c -4.90963,-1.18154 -13.33112,-6.1806 -16.50875,-9.79972 -1.61316,-1.83728 -4.15662,-5.6864 -5.65213,-8.5536 -2.39521,-4.59207 -2.72173,-6.34477 -2.74103,-14.71308 -0.0206,-8.926 0.18358,-9.87976 3.37908,-15.78522 3.85141,-7.11764 7.82901,-10.99042 15.37171,-14.96664 l 5.21308,-2.74814 312.5,0 312.50002,0 6.2852,3.4081 c 7.1228,3.86228 10.9969,7.84429 14.9619,15.37882 2.4327,4.62292 2.7433,6.28856 2.7433,14.71308 0,8.42452 -0.3106,10.09016 -2.7433,14.71308 -3.965,7.53453 -7.8391,11.51654 -14.9619,15.37882 l -6.2852,3.4081 -310.50002,0.15164 c -170.775,0.0834 -311.87788,-0.17996 -313.56196,-0.58524 z"
     style="fill:#007dca" />
</svg>
