<svg width="24" height="36" viewBox="0 0 24 36" fill="none" xmlns="http://www.w3.org/2000/svg">
<path fill-rule="evenodd" clip-rule="evenodd" d="M20.4683 35.3192H3.53227C1.58128 35.3192 0 33.7379 0 31.7869V3.53227C0 1.58128 1.58128 0 3.53227 0H20.4677C22.4187 0 24 1.58128 24 3.53227V31.7869C24.0006 33.7379 22.4187 35.3192 20.4683 35.3192ZM19.7819 5.66811C19.7819 4.88807 19.1496 4.25521 18.369 4.25521H5.63515C4.85451 4.25521 4.22224 4.88807 4.22224 5.66811V29.6752C4.22224 30.4558 4.85451 31.0881 5.63515 31.0881H18.369C19.1496 31.0881 19.7819 30.4558 19.7819 29.6752V5.66811ZM11.9844 29.7199C10.7976 29.7199 9.8356 28.758 9.8356 27.5711C9.8356 26.3843 10.7976 25.4223 11.9844 25.4223C13.1712 25.4223 14.1332 26.3843 14.1332 27.5711C14.1338 28.758 13.1712 29.7199 11.9844 29.7199Z" fill="#F13F2B"/>
</svg>
