<svg width="24" height="31" viewBox="0 0 24 31" fill="none" xmlns="http://www.w3.org/2000/svg">
<path fill-rule="evenodd" clip-rule="evenodd" d="M22.5448 17.7152C22.5195 17.9194 22.4537 18.1221 22.3442 18.3122L14.0107 30.1643C13.6532 30.7834 12.9424 31.063 12.2801 30.9098C11.6214 31.0572 10.9165 30.7771 10.5611 30.1616L1.73535 18.3149C1.67269 18.2064 1.62847 18.0937 1.59372 17.9789C0.580204 16.2189 0 14.1771 0 12C0 5.37241 5.37294 0 12 0C18.6276 0 24 5.37241 24 12C24 14.0713 23.4703 16.0167 22.5448 17.7152ZM12.03 3.79765C7.48368 3.79765 3.7987 7.48263 3.7987 12.029C3.7987 13.7038 4.30151 15.259 5.16076 16.559V16.5848L12.2422 26.0902L18.9951 16.4858V16.4021C19.7927 15.1337 20.2618 13.6379 20.2618 12.029C20.2608 7.48315 16.5758 3.79765 12.03 3.79765ZM12 17.6946C8.84784 17.6946 6.29273 15.1395 6.29273 11.9874C6.29273 8.83521 8.84837 6.27957 12 6.27957C15.1522 6.27957 17.7078 8.83468 17.7078 11.9874C17.7078 15.1395 15.1522 17.6946 12 17.6946ZM12 10.093C10.9538 10.093 10.1062 10.9412 10.1062 11.9874C10.1062 13.0335 10.9544 13.8812 12 13.8812C13.0462 13.8812 13.8943 13.0335 13.8943 11.9874C13.8943 10.9412 13.0462 10.093 12 10.093Z" fill="#F13F2B"/>
</svg>
