<?xml version="1.0" encoding="UTF-8" standalone="no"?>
<svg
   xmlns:dc="http://purl.org/dc/elements/1.1/"
   xmlns:cc="http://creativecommons.org/ns#"
   xmlns:rdf="http://www.w3.org/1999/02/22-rdf-syntax-ns#"
   xmlns:svg="http://www.w3.org/2000/svg"
   xmlns="http://www.w3.org/2000/svg"
   viewBox="0 0 1499.5925 1499.385"
   height="1499.385"
   width="1499.5927"
   version="1.1"
   id="svg2">
  <metadata
     id="metadata8">
    <rdf:RDF>
      <cc:Work
         rdf:about="">
        <dc:format>image/svg+xml</dc:format>
        <dc:type
           rdf:resource="http://purl.org/dc/dcmitype/StillImage" />
        <dc:title></dc:title>
      </cc:Work>
    </rdf:RDF>
  </metadata>
  <defs
     id="defs6" />
  <path
     id="path3390"
     d="m 721.26291,1499.1766 c -56.19516,-3.373 -87.04375,-7.2173 -128.5,-16.0132 -63.3685,-13.4452 -121.2393,-33.9237 -180.5,-63.8729 -70.9371,-35.8501 -130.2584,-78.2355 -186.8809,-133.5275 -79.8762,-77.9993 -141.887996,-174.029 -180.488796,-279.5 -59.8577,-163.55225 -59.8577,-349.44774 0,-512.99999 14.4329,-39.43571 36.9806,-87.44098 57.302496,-122 52.571,-89.40094 123.9641,-168.17074 207.0672,-228.46223 55.6387,-40.3661 119.2256,-74.201005 184,-97.907505 163.55226,-59.8577 349.44774,-59.8577 512.99999,0 39.4357,14.4329 87.441,36.9806 122,57.302605 111.1958,65.38708 203.6801,157.87128 269.0672,269.06713 11.9562,20.33257 33.4234,63.04116 42.7245,85 51.8254,122.35307 70.1936,255.25562 53.6248,388 -8.5447,68.45816 -26.4053,134.73828 -53.6248,198.99999 -9.3011,21.9588 -30.7683,64.6674 -42.7245,85 -65.372,111.1701 -157.8971,203.6952 -269.0672,269.0672 -20.3326,11.9562 -63.0412,33.4234 -85,42.7245 -76.56523,32.4309 -155.47595,51.412 -239.99999,57.7293 -14.34927,1.0725 -71.2375,2.0386 -82,1.3926 z m 85.23095,-111.8227 c 136.82063,-13.3877 257.14784,-64.2025 360.26904,-152.1435 14.8284,-12.6456 55.8018,-53.619 68.4474,-68.4474 83.4336,-97.8358 134.4199,-213.58398 149.9879,-340.49999 3.3188,-27.05636 4.0517,-40.89374 4.0517,-76.5 0,-35.60626 -0.7329,-49.44364 -4.0517,-76.5 -15.568,-126.91601 -66.5543,-242.66424 -149.9879,-340.5 -12.6456,-14.82845 -53.619,-55.80184 -68.4474,-68.44743 -97.8358,-83.43359 -213.58398,-134.4199 -340.49999,-149.9878 -27.05636,-3.3189 -40.89374,-4.0517 -76.5,-4.0517 -35.60626,0 -49.44364,0.7328 -76.5,4.0517 -126.91601,15.5679 -242.6642,66.55421 -340.5,149.9878 -14.8285,12.64559 -55.8018,53.61898 -68.4474,68.44743 -83.4336,97.83576 -134.4199,213.58399 -149.9879,340.5 -3.3188,27.05636 -4.0517,40.89374 -4.0517,76.5 0,35.60626 0.7329,49.44364 4.0517,76.5 15.568,126.91601 66.5543,242.66419 149.9879,340.49999 12.6456,14.8284 53.6189,55.8018 68.4474,68.4474 97.8423,83.4392 213.42382,134.3537 340.5,149.9927 10.31784,1.2698 20.68509,2.185 45,3.9724 11.67427,0.8582 73.99298,-0.4284 88.23095,-1.8216 z M 647.96162,952.17474 c -2.85668,-1.42354 -6.78666,-4.44896 -8.73328,-6.72315 -6.92965,-8.09574 -6.51521,4.63292 -6.22638,-191.23217 0.24637,-167.07187 0.35975,-177.1372 2.02965,-180.19291 3.01773,-5.52207 7.83668,-10.28274 13.14128,-12.98235 6.97279,-3.54858 17.09571,-3.69952 23.53742,-0.35096 2.44607,1.27153 67.02107,40.76938 143.5,87.77302 103.66612,63.71276 140.13422,86.6101 143.30288,89.97603 5.23584,5.56178 7.75247,13.16064 6.94611,20.97347 -0.57541,5.57525 -4.46984,13.86934 -8.07747,17.20288 -2.72849,2.52119 -283.06812,175.01523 -287.3368,176.79942 -5.56401,2.32561 -16.11344,1.73168 -22.08341,-1.24328 z"
     style="fill:#fe3c24" />
</svg>
