<?xml version="1.0" encoding="UTF-8" standalone="no"?>
<svg
   xmlns:dc="http://purl.org/dc/elements/1.1/"
   xmlns:cc="http://creativecommons.org/ns#"
   xmlns:rdf="http://www.w3.org/1999/02/22-rdf-syntax-ns#"
   xmlns:svg="http://www.w3.org/2000/svg"
   xmlns="http://www.w3.org/2000/svg"
   viewBox="0 0 1432.1025 1431.9392"
   height="1431.9392"
   width="1432.1025"
   version="1.1"
   id="svg2">
  <metadata
     id="metadata8">
    <rdf:RDF>
      <cc:Work
         rdf:about="">
        <dc:format>image/svg+xml</dc:format>
        <dc:type
           rdf:resource="http://purl.org/dc/dcmitype/StillImage" />
        <dc:title></dc:title>
      </cc:Work>
    </rdf:RDF>
  </metadata>
  <defs
     id="defs6" />
  <path
     id="path3351"
     d="M 166.15836,1430.9081 C 109.50815,1424.9865 58.22852,1392.7432 27.95909,1344.0121 13.0398,1319.9933 4.03711,1293.2413 1.09884,1264.1952 -0.36628,1249.7119 -0.36628,182.3905 1.09884,167.90719 7.75009,102.1568 46.95808,46.392987 106.55124,17.926845 125.3042,8.9690345 145.8722,3.3278775 167.90719,1.0988385 c 14.48331,-1.465118 1081.80491,-1.465118 1096.28821,0 22.035,2.229039 42.603,7.870196 61.356,16.8280065 59.5932,28.466142 98.8012,84.229955 105.4523,149.980345 1.4651,14.48331 1.4651,1081.80471 0,1096.28801 -6.5895,65.1403 -44.7737,120.1035 -103.4523,148.9119 -20.1148,9.8754 -40.2281,15.5569 -63.356,17.8965 -12.9332,1.3083 -1085.4997,1.2151 -1098.03704,-0.095 z M 1262.923,1362.4868 c 25.6846,-3.7805 47.6435,-14.8609 66.1732,-33.3907 13.8982,-13.898 22.6713,-28.0809 28.8665,-46.6654 6.5662,-19.6982 6.0887,24.7245 6.0887,-566.37946 0,-591.10398 0.4775,-546.68132 -6.0887,-566.37946 -13.3905,-40.17028 -45.1016,-68.889521 -87.1279,-78.907601 l -9.2834,-2.21294 -545.0002,0 -544.99996,0 -9.59986,2.13951 c -45.91778,10.23365 -80.1379,44.224821 -91.1872,90.577091 l -2.21294,9.2834 0,545 0,544.99996 2.13951,9.5999 c 9.31972,41.817 38.53048,74.2968 78.98103,87.82 18.92003,6.3252 -23.67611,5.8744 565.25112,5.982 482.6308,0.088 538.4545,-0.061 548.0001,-1.4663 z M 705.8954,1051.7235 c -10.0082,-3.7556 -15.7506,-8.7793 -20.6495,-18.0649 l -2.6947,-5.1074 -0.267,-139.23291 -0.2671,-139.23295 -139.23291,-0.26705 -139.23295,-0.26705 -6.28522,-3.4081 c -7.13756,-3.87027 -11.01933,-7.86669 -14.93762,-15.37882 -2.40219,-4.60545 -2.71912,-6.32039 -2.71912,-14.71308 0,-8.39269 0.31693,-10.10763 2.71912,-14.71308 3.91829,-7.51213 7.80006,-11.50855 14.93762,-15.37882 l 6.28522,-3.4081 139.23295,-0.26705 139.23291,-0.26705 0.2671,-139.23295 0.267,-139.23295 3.4081,-6.28522 c 3.8623,-7.12282 7.8443,-10.99686 15.3789,-14.96184 4.6229,-2.43276 6.2885,-2.74333 14.713,-2.74333 8.4246,0 10.0902,0.31057 14.7131,2.74333 7.5346,3.96498 11.5166,7.83902 15.3788,14.96184 l 3.4081,6.28522 0.2671,139.23295 0.267,139.23295 139.23305,0.26705 139.23305,0.26705 6.2852,3.4081 c 7.1228,3.86228 10.9969,7.84429 14.9619,15.37882 2.4312,4.62004 2.7438,6.29381 2.7481,14.71308 0,8.91665 -0.2045,9.88595 -3.4033,15.78522 -3.8607,7.1199 -7.8398,10.99236 -15.3788,14.96664 l -5.2131,2.74814 -139.23305,0.26705 -139.23305,0.26705 -0.267,139.23295 -0.2671,139.23291 -2.7481,5.2131 c -3.9722,7.5351 -7.8602,11.533 -14.8272,15.2464 -5.1497,2.7447 -7.4649,3.3412 -14.2852,3.6801 -5.3758,0.2672 -9.3807,-0.061 -11.7953,-0.9673 z"
     style="fill:#007dca" />
</svg>
