<svg width="34" height="38" viewBox="0 0 34 38" fill="none" xmlns="http://www.w3.org/2000/svg">
<path d="M18.7745 7.73131L18.7745 7.73134L18.7781 7.72828C19.4251 7.17373 19.427 6.25285 18.9673 5.6933C18.4883 5.0321 17.5531 4.95659 16.9161 5.5009L13.8473 8.03266C13.1875 8.51046 13.1108 9.4426 13.6511 10.0796C13.9286 10.446 14.3087 10.6346 14.7693 10.6346C15.0445 10.6346 15.4179 10.5451 15.7063 10.2626L18.7745 7.73131ZM14.0053 25.5775L14.0062 25.5767C14.5801 25.0984 14.6549 24.179 14.2035 23.547C13.7262 22.8789 12.7863 22.8007 12.1469 23.347L9.07807 25.8788C8.41825 26.3566 8.34151 27.2887 8.88182 27.9257C9.15939 28.2921 9.53942 28.4808 10 28.4808C10.2752 28.4808 10.6487 28.3913 10.937 28.1087L14.0053 25.5775ZM24.9591 23.5296L24.9528 23.5223L24.946 23.5155C24.409 22.9785 23.4946 22.8655 22.9174 23.346C22.9172 23.3461 22.9171 23.3463 22.9169 23.3464L19.8473 25.8788C19.1875 26.3566 19.1107 27.2887 19.651 27.9257C19.9286 28.2921 20.3086 28.4808 20.7692 28.4808C21.0445 28.4808 21.4179 28.3913 21.7063 28.1087L24.7681 25.5827C25.4301 25.1034 25.5052 24.1667 24.9591 23.5296ZM4.36539 12.1538V34.2885H2.23077C1.4004 34.2885 0.75 34.9388 0.75 35.7692C0.75 36.5996 1.4004 37.25 2.23077 37.25H4.53847H17H17.0005H17.0009H17.0014H17.0018H17.0022H17.0027H17.0031H17.0036H17.004H17.0044H17.0049H17.0053H17.0057H17.0062H17.0066H17.007H17.0074H17.0079H17.0083H17.0087H17.0091H17.0095H17.0099H17.0103H17.0108H17.0112H17.0116H17.012H17.0124H17.0128H17.0132H17.0136H17.014H17.0144H17.0148H17.0152H17.0155H17.0159H17.0163H17.0167H17.0171H17.0175H17.0179H17.0182H17.0186H17.019H17.0194H17.0198H17.0201H17.0205H17.0209H17.0212H17.0216H17.022H17.0223H17.0227H17.0231H17.0234H17.0238H17.0241H17.0245H17.0249H17.0252H17.0256H17.0259H17.0263H17.0266H17.027H17.0273H17.0276H17.028H17.0283H17.0287H17.029H17.0294H17.0297H17.03H17.0304H17.0307H17.031H17.0314H17.0317H17.032H17.0323H17.0327H17.033H17.0333H17.0336H17.034H17.0343H17.0346H17.0349H17.0352H17.0356H17.0359H17.0362H17.0365H17.0368H17.0371H17.0374H17.0377H17.038H17.0384H17.0387H17.039H17.0393H17.0396H17.0399H17.0402H17.0405H17.0408H17.0411H17.0414H17.0417H17.042H17.0422H17.0425H17.0428H17.0431H17.0434H17.0437H17.044H17.0443H17.0446H17.0448H17.0451H17.0454H17.0457H17.046H17.0462H17.0465H17.0468H17.0471H17.0474H17.0476H17.0479H17.0482H17.0485H17.0487H17.049H17.0493H17.0495H17.0498H17.0501H17.0504H17.0506H17.0509H17.0512H17.0514H17.0517H17.0519H17.0522H17.0525H17.0527H17.053H17.0533H17.0535H17.0538H17.054H17.0543H17.0545H17.0548H17.0551H17.0553H17.0556H17.0558H17.0561H17.0563H17.0566H17.0568H17.0571H17.0573H17.0576H17.0578H17.0581H17.0583H17.0586H17.0588H17.0591H17.0593H17.0596H17.0598H17.06H17.0603H17.0605H17.0608H17.061H17.0613H17.0615H17.0617H17.062H17.0622H17.0625H17.0627H17.0629H17.0632H17.0634H17.0636H17.0639H17.0641H17.0644H17.0646H17.0648H17.0651H17.0653H17.0655H17.0658H17.066H17.0662H17.0665H17.0667H17.0669H17.0672H17.0674H17.0676H17.0678H17.0681H17.0683H17.0685H17.0688H17.069H17.0692H17.0695H17.0697H17.0699H17.0701H17.0704H17.0706H17.0708H17.0711H17.0713H17.0715H17.0717H17.072H17.0722H17.0724H17.0726H17.0729H17.0731H17.0733H17.0735H17.0738H17.074H17.0742H17.0745H17.0747H17.0749H17.0751H17.0754H17.0756H17.0758H17.076H17.0763H17.0765H17.0767H17.0769H17.0772H17.0774H17.0776H17.0778H17.0781H17.0783H17.0785H17.0787H17.079H17.0792H17.0794H17.0796H17.0799H17.0801H17.0803H17.0805H17.0808H17.081H17.0812H17.0814H17.0817H17.0819H17.0821H17.0824H17.0826H17.0828H17.083H17.0833H17.0835H17.0837H17.084H17.0842H17.0844H17.0846H17.0849H17.0851H17.0853H17.0856H17.0858H17.086H17.0863H17.0865H17.0867H17.0869H17.0872H17.0874H17.0876H17.0879H17.0881H17.0883H17.0886H17.0888H17.089H17.0893H17.0895H17.0898H17.09H17.0902H17.0905H17.0907H17.0909H17.0912H17.0914H17.0917H17.0919H17.0921H17.0924H17.0926H17.0929H17.0931H17.0933H17.0936H17.0938H17.0941H17.0943H17.0946H17.0948H17.0951H17.0953H17.0955H17.0958H17.096H17.0963H17.0965H17.0968H17.097H17.0973H17.0975H17.0978H17.098H17.0983H17.0986H17.0988H17.0991H17.0993H17.0996H17.0998H17.1001H17.1004H17.1006H17.1009H17.1011H17.1014H17.1017H17.1019H17.1022H17.1024H17.1027H17.103H17.1032H17.1035H17.1038H17.104H17.1043H17.1046H17.1049H17.1051H17.1054H17.1057H17.106H17.1062H17.1065H17.1068H17.1071H17.1073H17.1076H17.1079H17.1082H17.1085H17.1087H17.109H17.1093H17.1096H17.1099H17.1102H17.1105H17.1108H17.111H17.1113H17.1116H17.1119H17.1122H17.1125H17.1128H17.1131H17.1134H17.1137H17.114H17.1143H17.1146H17.1149H17.1152H17.1155H17.1158H17.1161H17.1164H17.1167H17.1171H17.1174H17.1177H17.118H17.1183H17.1186H17.1189H17.1193H17.1196H17.1199H17.1202H17.1205H17.1209H17.1212H17.1215H17.1219H17.1222H17.1225H17.1228H17.1232H17.1235H17.1238H17.1242H17.1245H17.1249H17.1252H17.1255H17.1259H17.1262H17.1266H17.1269H17.1273H17.1276H17.128H17.1283H17.1287H17.129H17.1294H17.1297H17.1301H17.1304H17.1308H17.1312H17.1315H17.1319H17.1323H17.1326H17.133H17.1334H17.1337H17.1341H17.1345H17.1349H17.1352H17.1356H17.136H17.1364H17.1368H17.1372H17.1375H17.1379H17.1383H17.1387H17.1391H17.1395H17.1399H17.1403H17.1407H17.1411H17.1415H17.1419H17.1423H17.1427H17.1431H17.1435H17.1439H17.1443H17.1448H17.1452H17.1456H17.146H17.1464H17.1469H17.1473H17.1477H17.1481H17.1486H17.149H17.1494H17.1499H17.1503H17.1507H17.1512H17.1516H17.1521H17.1525H17.153H17.1534H17.1539H17.1543H17.1547H17.1552H17.1556H17.1561H17.1565H17.157H17.1574H17.1578H17.1583H17.1587H17.1591H17.1596H17.16H17.1604H17.1608H17.1613H17.1617H17.1621H17.1625H17.1629H17.1634H17.1638H17.1642H17.1646H17.165H17.1654H17.1658H17.1662H17.1666H17.167H17.1674H17.1678H17.1682H17.1686H17.169H17.1694H17.1698H17.1702H17.1705H17.1709H17.1713H17.1717H17.1721H17.1725H17.1728H17.1732H17.1736H17.174H17.1743H17.1747H17.1751H17.1754H17.1758H17.1762H17.1765H17.1769H17.1773H17.1776H17.178H17.1783H17.1787H17.179H17.1794H17.1797H17.1801H17.1804H17.1808H17.1811H17.1815H17.1818H17.1822H17.1825H17.1828H17.1832H17.1835H17.1839H17.1842H17.1845H17.1849H17.1852H17.1855H17.1859H17.1862H17.1865H17.1868H17.1872H17.1875H17.1878H17.1881H17.1884H17.1888H17.1891H17.1894H17.1897H17.19H17.1903H17.1906H17.191H17.1913H17.1916H17.1919H17.1922H17.1925H17.1928H17.1931H17.1934H17.1937H17.194H17.1943H17.1946H17.1949H17.1952H17.1955H17.1958H17.1961H17.1964H17.1967H17.197H17.1972H17.1975H17.1978H17.1981H17.1984H17.1987H17.199H17.1992H17.1995H17.1998H17.2001H17.2004H17.2006H17.2009H17.2012H17.2015H17.2018H17.202H17.2023H17.2026H17.2028H17.2031H17.2034H17.2037H17.2039H17.2042H17.2045H17.2047H17.205H17.2053H17.2055H17.2058H17.206H17.2063H17.2066H17.2068H17.2071H17.2074H17.2076H17.2079H17.2081H17.2084H17.2086H17.2089H17.2092H17.2094H17.2097H17.2099H17.2102H17.2104H17.2107H17.2109H17.2112H17.2114H17.2117H17.2119H17.2122H17.2124H17.2127H17.2129H17.2131H17.2134H17.2136H17.2139H17.2141H17.2144H17.2146H17.2148H17.2151H17.2153H17.2156H17.2158H17.2161H17.2163H17.2165H17.2168H17.217H17.2172H17.2175H17.2177H17.218H17.2182H17.2184H17.2187H17.2189H17.2191H17.2194H17.2196H17.2198H17.2201H17.2203H17.2205H17.2208H17.221H17.2212H17.2215H17.2217H17.2219H17.2222H17.2224H17.2226H17.2228H17.2231H17.2233H17.2235H17.2238H17.224H17.2242H17.2244H17.2247H17.2249H17.2251H17.2254H17.2256H17.2258H17.226H17.2263H17.2265H17.2267H17.2269H17.2272H17.2274H17.2276H17.2278H17.2281H17.2283H17.2285H17.2287H17.229H17.2292H17.2294H17.2297H17.2299H17.2301H17.2303H17.2306H17.2308H17.231H17.2312H17.2315H17.2317H17.2319H17.2321H17.2324H17.2326H17.2328H17.233H17.2333H17.2335H17.2337H17.2339H17.2342H17.2344H17.2346H17.2348H17.2351H17.2353H17.2355H17.2357H17.236H17.2362H17.2364H17.2367H17.2369H17.2371H17.2373H17.2376H17.2378H17.238H17.2383H17.2385H17.2387H17.2389H17.2392H17.2394H17.2396H17.2399H17.2401H17.2403H17.2406H17.2408H17.241H17.2413H17.2415H17.2417H17.242H17.2422H17.2424H17.2427H17.2429H17.2431H17.2434H17.2436H17.2438H17.2441H17.2443H17.2445H17.2448H17.245H17.2453H17.2455H17.2457H17.246H17.2462H17.2465H17.2467H17.2469H17.2472H17.2474H17.2477H17.2479H17.2482H17.2484H17.2487H17.2489H17.2491H17.2494H17.2496H17.2499H17.2501H17.2504H17.2506H17.2509H17.2511H17.2514H17.2516H17.2519H17.2522H17.2524H17.2527H17.2529H17.2532H17.2534H17.2537H17.2539H17.2542H17.2545H17.2547H17.255H17.2552H17.2555H17.2558H17.256H17.2563H17.2566H17.2568H17.2571H17.2574H17.2576H17.2579H17.2582H17.2584H17.2587H17.259H17.2593H17.2595H17.2598H17.2601H17.2604H17.2606H17.2609H17.2612H17.2615H17.2617H17.262H17.2623H17.2626H17.2629H17.2632H17.2635H17.2637H17.264H17.2643H17.2646H17.2649H17.2652H17.2655H17.2658H17.2661H17.2664H17.2667H17.267H17.2673H17.2676H17.2679H17.2682H17.2685H17.2688H17.2691H17.2694H17.2697H17.27H17.2703H17.2706H17.2709H17.2712H17.2715H17.2718H17.2722H17.2725H17.2728H17.2731H17.2734H17.2738H17.2741H17.2744H17.2747H17.275H17.2754H17.2757H17.276H17.2764H17.2767H17.277H17.2774H17.2777H17.278H17.2784H17.2787H17.279H17.2794H17.2797H17.2801H17.2804H17.2808H17.2811H17.2815H17.2818H17.2822H17.2825H17.2829H17.2832H17.2836H17.2839H17.2843H17.2847H17.285H17.2854H17.2858H17.2861H17.2865H17.2869H17.2872H17.2876H17.288H17.2883H17.2887H17.2891H17.2895H17.2899H17.2902H17.2906H17.291H17.2914H17.2918H17.2922H17.2926H17.293H17.2934H17.2937H17.2941H17.2945H17.2949H17.2953H17.2957H17.2962H17.2966H17.297H17.2974H17.2978H17.2982H17.2986H17.299H17.2995H17.2999H17.3003H17.3007H17.3011H17.3016H17.302H17.3024H17.3029H17.3033H17.3037H17.3042H17.3046H17.305H17.3055H17.3059H17.3064H17.3068H17.3073H17.3077H29.2308H31.5385C32.3689 37.25 33.0193 36.5996 33.0193 35.7692C33.0193 34.9494 32.3792 34.2885 31.6154 34.2885H29.4808V12.1538V12.1415L29.4796 12.1293C28.8517 5.77219 23.4379 0.75 16.9231 0.75C10.4083 0.75 4.99447 5.77219 4.36661 12.1293L4.36539 12.1415V12.1538ZM16.9231 3.55769C21.7748 3.55769 25.836 7.16229 26.5588 11.8269H7.35993C8.00991 7.16421 12.0694 3.55769 16.9231 3.55769ZM7.17309 14.7115H15.75V34.2115H7.17309V14.7115ZM18.6346 34.2885V14.7885H26.6731V34.2885H18.6346Z" fill="#C4C4C4" stroke="#C4C4C4" stroke-width="0.5"/>
</svg>
