<svg width="36" height="35" viewBox="0 0 36 35" fill="none" xmlns="http://www.w3.org/2000/svg">
<path d="M30.6 0H5.4C2.34 0 0 2.34 0 5.4V27C0 30.06 2.34 32.4 5.4 32.4C5.4 33.48 6.12 34.2 7.2 34.2C8.28 34.2 9 33.48 9 32.4H27C27 33.48 27.72 34.2 28.8 34.2C29.88 34.2 30.6 33.48 30.6 32.4C33.66 32.4 36 30.06 36 27V5.4C36 2.34 33.66 0 30.6 0ZM3.6 27V5.4C3.6 4.32 4.32 3.6 5.4 3.6H23.4V7.2C22.32 7.2 21.6 7.92 21.6 9C21.6 10.08 22.32 10.8 23.4 10.8V21.6C22.32 21.6 21.6 22.32 21.6 23.4C21.6 24.48 22.32 25.2 23.4 25.2V28.8H5.4C4.32 28.8 3.6 28.08 3.6 27ZM32.4 27C32.4 28.08 31.68 28.8 30.6 28.8H27V25.2C28.08 25.2 28.8 24.48 28.8 23.4C28.8 22.32 28.08 21.6 27 21.6V10.8C28.08 10.8 28.8 10.08 28.8 9C28.8 7.92 28.08 7.2 27 7.2V3.6H30.6C31.68 3.6 32.4 4.32 32.4 5.4V27Z" fill="#C4C4C4"/>
<path d="M12.5992 21.5998C15.6592 21.5998 17.9992 19.2598 17.9992 16.1998C17.9992 13.1398 15.6592 10.7998 12.5992 10.7998C9.53922 10.7998 7.19922 13.1398 7.19922 16.1998C7.19922 19.2598 9.53922 21.5998 12.5992 21.5998ZM12.5992 14.3998C13.6792 14.3998 14.3992 15.1198 14.3992 16.1998C14.3992 17.2798 13.6792 17.9998 12.5992 17.9998C11.5192 17.9998 10.7992 17.2798 10.7992 16.1998C10.7992 15.1198 11.5192 14.3998 12.5992 14.3998Z" fill="#C4C4C4"/>
</svg>
