<svg width="38" height="37" viewBox="0 0 38 37" fill="none" xmlns="http://www.w3.org/2000/svg">
<path d="M24.2769 17.4302L30.7897 10.9175L33.2278 13.3556L33.4642 13.592L33.6241 13.2984L37.2196 6.69582L37.309 6.53166L37.1768 6.39949L33.3852 2.60792L33.253 2.47575L33.0889 2.56514L26.4863 6.1606L26.1927 6.3205L26.4291 6.55693L28.9326 9.06041L22.4221 15.5709L20.0248 13.1736C21.0282 9.79148 20.146 6.03853 17.564 3.52195C15.4775 1.43621 12.3269 0.436645 9.12221 0.836753C8.43419 0.91388 7.9019 1.3739 7.67543 1.97783C7.44633 2.58875 7.59518 3.3469 8.05959 3.8113L12.1453 7.89699L11.362 11.2709L7.98815 12.0541L3.83711 7.90305C3.37271 7.43865 2.69137 7.29817 2.03718 7.44355L2.02006 7.44735L2.00363 7.45351C1.40026 7.67977 0.940528 8.2113 0.862772 8.8984C0.396884 12.2332 1.39535 15.4512 3.48356 17.5394C5.99944 20.0553 9.88023 21.0019 13.3315 19.935L15.6621 22.2655L14.316 23.6116L11.7471 21.0428L11.5703 20.866L11.3936 21.0428L4.46414 27.9722C3.5052 28.9311 2.95274 30.1703 2.95274 31.5483C2.95274 32.9264 3.5052 34.1655 4.46414 35.1245C5.42441 36.0847 6.72936 36.6358 8.04026 36.6358C9.342 36.6358 10.6518 36.1562 11.6193 35.1215L18.5458 28.195L18.7226 28.0183L18.5458 27.8415L16.0423 25.338L17.3884 23.9919L27.998 34.6015C28.8282 35.4317 29.9373 35.9168 31.1819 35.9168L31.1986 35.9168C31.3785 35.9168 31.6608 35.917 31.892 35.8458C33.338 35.6323 34.5737 34.734 35.2601 33.4298L35.2608 33.4285C36.2284 31.5624 35.8124 29.1567 34.2342 27.6445L24.2769 17.4302ZM6.52264 33.3382L6.52272 33.3381L6.51736 33.3327C6.03578 32.8511 5.74076 32.1937 5.74076 31.5483C5.74076 30.8897 5.97937 30.2427 6.50668 29.774L6.51217 29.7691L6.51736 29.764L11.8318 24.4495L15.4006 28.0183L10.0861 33.3327C9.06936 34.3495 7.46699 34.3415 6.52264 33.3382ZM5.47141 15.8131C4.13191 14.4736 3.57826 12.6777 3.4722 10.9909L7.27514 14.7938L7.37312 14.8918L7.50813 14.8606L13.457 13.4878L13.6092 13.4527L13.6443 13.3004L15.0172 7.35157L15.0483 7.21656L14.9503 7.11858L11.2177 3.38591C13.0078 3.52511 14.6547 4.25361 15.841 5.3824C17.8588 7.40193 18.4914 10.4304 17.4193 13.1475L17.16 13.731L17.0901 13.8883L17.212 14.0097L32.7702 29.5025C32.7703 29.5026 32.7704 29.5027 32.7705 29.5028C33.5547 30.2873 33.778 31.4772 33.3147 32.3459L33.3146 32.3458L33.3117 32.3517C33.023 32.9292 32.4393 33.3417 31.7909 33.4596C31.1567 33.5749 30.5193 33.3432 30.1166 32.9405L14.2966 17.1205L14.18 17.0039L14.027 17.0651L13.3733 17.3266L13.3733 17.3266L13.3696 17.3281C10.6512 18.4661 7.49084 17.8325 5.47141 15.8131ZM34.2068 7.013L32.8875 9.43182L30.4183 6.9626L32.8371 5.64325L34.2068 7.013Z" fill="#C4C4C4" stroke="#C4C4C4" stroke-width="0.5"/>
</svg>
