<svg width="36" height="36" viewBox="0 0 36 36" fill="none" xmlns="http://www.w3.org/2000/svg">
<path d="M36 7.74C36 6.66 35.28 5.94 34.2 5.94C32.04 5.94 30.42 4.14 30.6 2.16C30.6 0.9 29.7 0 28.8 0H7.2C6.3 0 5.4 0.9 5.4 1.98C5.58 4.14 3.78 5.76 1.8 5.76C0.72 5.76 0 6.66 0 7.56C0.36 16.56 3.24 31.86 17.1 35.64C17.28 35.64 17.28 35.64 17.46 35.82C18 36 18.54 35.82 18.9 35.64C32.76 32.04 35.64 16.56 36 7.74ZM3.78 9.18C6.3 8.46 8.28 6.3 9 3.6H27C27.54 6.3 29.52 8.46 32.22 9.18C31.68 17.1 28.8 29.34 18 32.4C7.2 29.34 4.32 17.1 3.78 9.18Z" fill="#F13F2B"/>
<path d="M25.3801 12.6005C24.6601 11.8805 23.5801 11.8805 22.8601 12.6005L16.0201 19.4405L13.1401 16.5605C12.4201 15.8405 11.3401 15.8405 10.6201 16.5605C9.90008 17.2805 9.90008 18.3605 10.6201 19.0805L14.7601 23.4005C15.4801 24.1205 16.5601 24.1205 17.2801 23.4005L25.3801 15.3005C26.1001 14.4005 26.1001 13.3205 25.3801 12.6005Z" fill="#F13F2B"/>
</svg>
