<?xml version="1.0" encoding="UTF-8" standalone="no"?>
<svg
   xmlns:dc="http://purl.org/dc/elements/1.1/"
   xmlns:cc="http://creativecommons.org/ns#"
   xmlns:rdf="http://www.w3.org/1999/02/22-rdf-syntax-ns#"
   xmlns:svg="http://www.w3.org/2000/svg"
   xmlns="http://www.w3.org/2000/svg"
   style="fill:none"
   version="1.1"
   id="svg2"
   viewBox="0 0 22.006077 21.00005"
   height="21.00005"
   width="22.006077">
  <metadata
     id="metadata12">
    <rdf:RDF>
      <cc:Work
         rdf:about="">
        <dc:format>image/svg+xml</dc:format>
        <dc:type
           rdf:resource="http://purl.org/dc/dcmitype/StillImage" />
        <dc:title></dc:title>
      </cc:Work>
    </rdf:RDF>
  </metadata>
  <defs
     id="defs10" />
  <g
     transform="translate(-0.5,-0.49995)"
     id="g3352">
    <g
       id="g3349">
      <path
         d="M 21.988281,1.6054688 A 0.50005,0.50005 0 0 0 21.646484,1.7578125 L 10.947266,12.513672 7.9863281,9.5371094 A 0.50005,0.50005 0 1 0 7.2773438,10.242188 l 3.3164062,3.332031 a 0.50005,0.50005 0 0 0 0.708984,0 L 22.355469,2.4628906 A 0.50005,0.50005 0 0 0 21.988281,1.6054688 Z"
         style="color:#000000;font-style:normal;font-variant:normal;font-weight:normal;font-stretch:normal;font-size:medium;line-height:normal;font-family:sans-serif;text-indent:0;text-align:start;text-decoration:none;text-decoration-line:none;text-decoration-style:solid;text-decoration-color:#000000;letter-spacing:normal;word-spacing:normal;text-transform:none;direction:ltr;block-progression:tb;writing-mode:lr-tb;baseline-shift:baseline;text-anchor:start;white-space:normal;clip-rule:nonzero;display:inline;overflow:visible;visibility:visible;opacity:1;isolation:auto;mix-blend-mode:normal;color-interpolation:sRGB;color-interpolation-filters:linearRGB;solid-color:#000000;solid-opacity:1;fill:#407dc7;fill-opacity:1;fill-rule:nonzero;stroke:none;stroke-width:1;stroke-linecap:round;stroke-linejoin:round;stroke-miterlimit:4;stroke-dasharray:none;stroke-dashoffset:0;stroke-opacity:1;color-rendering:auto;image-rendering:auto;shape-rendering:auto;text-rendering:auto;enable-background:accumulate"
         id="path4" />
    </g>
    <path
       style="color:#000000;font-style:normal;font-variant:normal;font-weight:normal;font-stretch:normal;font-size:medium;line-height:normal;font-family:sans-serif;text-indent:0;text-align:start;text-decoration:none;text-decoration-line:none;text-decoration-style:solid;text-decoration-color:#000000;letter-spacing:normal;word-spacing:normal;text-transform:none;direction:ltr;block-progression:tb;writing-mode:lr-tb;baseline-shift:baseline;text-anchor:start;white-space:normal;clip-rule:nonzero;display:inline;overflow:visible;visibility:visible;opacity:1;isolation:auto;mix-blend-mode:normal;color-interpolation:sRGB;color-interpolation-filters:linearRGB;solid-color:#000000;solid-opacity:1;fill:#407dc7;fill-opacity:1;fill-rule:nonzero;stroke:none;stroke-width:1;stroke-linecap:round;stroke-linejoin:round;stroke-miterlimit:4;stroke-dasharray:none;stroke-dashoffset:0;stroke-opacity:1;color-rendering:auto;image-rendering:auto;shape-rendering:auto;text-rendering:auto;enable-background:accumulate"
       d="M 3.2109375,0.5 C 2.4915491,0.5 1.8009033,0.78821025 1.2929688,1.2988281 0.7850238,1.8094564 0.5,2.5015693 0.5,3.2226562 l 0,15.5546878 c 0,0.721032 0.28497923,1.413216 0.7929688,1.923828 C 1.8009144,21.211874 2.4915661,21.5 3.2109375,21.5 l 15.4726565,0 c 0.719394,0 1.410003,-0.288168 1.917968,-0.798828 0.507911,-0.510606 0.792969,-1.20279 0.792969,-1.923828 l 0,-7.777344 a 0.50005,0.50005 0 1 0 -1,0 l 0,7.777344 c 0,0.457562 -0.180863,0.895956 -0.501953,1.21875 C 19.571343,20.319033 19.136799,20.5 18.683594,20.5 l -15.4726565,0 C 2.7577689,20.5 2.3231074,20.318991 2.0019531,19.996094 1.6808226,19.673306 1.5,19.234911 1.5,18.777344 L 1.5,3.2226562 C 1.5,2.7650032 1.6807781,2.326778 2.0019531,2.0039062 2.3231186,1.6810441 2.7577859,1.5 3.2109375,1.5 l 12.1582035,0 a 0.50005,0.50005 0 1 0 0,-1 l -12.1582035,0 z"
       id="path6" />
  </g>
</svg>
