<?xml version="1.0" encoding="UTF-8" standalone="no"?>
<svg
   xmlns:dc="http://purl.org/dc/elements/1.1/"
   xmlns:cc="http://creativecommons.org/ns#"
   xmlns:rdf="http://www.w3.org/1999/02/22-rdf-syntax-ns#"
   xmlns:svg="http://www.w3.org/2000/svg"
   xmlns="http://www.w3.org/2000/svg"
   viewBox="0 0 1498.9824 1432.2454"
   height="1432.2454"
   width="1498.9824"
   version="1.1"
   id="svg2">
  <metadata
     id="metadata8">
    <rdf:RDF>
      <cc:Work
         rdf:about="">
        <dc:format>image/svg+xml</dc:format>
        <dc:type
           rdf:resource="http://purl.org/dc/dcmitype/StillImage" />
        <dc:title></dc:title>
      </cc:Work>
    </rdf:RDF>
  </metadata>
  <defs
     id="defs6" />
  <path
     id="path3338"
     d="m 314.02306,1430.8629 c -31.4197,-6.8529 -53.5,-34.0476 -53.5,-65.892 0,-7.336 6.9672,-49.6654 36.9664,-224.59 20.3315,-118.5527 37.094,-216.90135 37.25,-218.55255 0.2633,-2.7874 -11.025,-14.01716 -157.7164,-156.89791 C 90.123047,680.28786 17.318905,609.00725 15.236075,606.5291 9.8983552,600.17828 5.0715652,591.08787 2.3872352,582.3306 c -2.72994999,-8.90609 -3.20660999,-26.06301 -0.97238,-35 5.87792,-23.51193 24.3146298,-42.82092 47.1679098,-49.39956 2.99215,-0.86133 104.214075,-15.99509 224.937595,-33.63057 120.7235,-17.63548 219.7897,-32.38072 220.1471,-32.76719 0.3574,-0.38647 44.5947,-89.80268 98.305,-198.70268 53.7104,-108.9 99.2803,-200.475 101.2666,-203.5 7.9398,-12.09217 20.9498,-21.796135 35.784,-26.690888 C 735.94956,0.354214 738.70036,0 749.52306,0 c 10.8227,0 13.5735,0.354214 20.5,2.639712 14.8349,4.894982 27.8465,14.600508 35.783,26.690888 1.9857,3.025 47.5569,94.6 101.2693,203.5 53.7124,108.9 97.95014,198.31621 98.30604,198.70268 0.3559,0.38647 99.4209,15.13171 220.1444,32.76719 120.7235,17.63548 221.9454,32.76924 224.9376,33.63057 18.775,5.40465 34.8131,19.42906 42.9453,37.55323 4.2938,9.56946 5.6001,16.21322 5.5734,28.34633 -0.037,16.80233 -5.1514,30.90459 -15.6889,43.25984 -2.3486,2.75368 -65.9201,64.98652 -141.2701,138.29521 -75.35,73.30868 -146.3105,142.43975 -157.6901,153.6246 l -20.6901,20.3361 37.4358,218.24215 c 40.7287,237.4396 39.4451,228.5997 35.4588,244.1859 -9.6842,37.8646 -51.2275,59.7679 -88.479,46.6497 -2.7695,-0.9753 -93.0104,-48.0418 -200.53544,-104.5923 -107.525,-56.5504 -196.2508,-103.0154 -197.1684,-103.2554 -0.9272,-0.2425 -88.6549,45.3075 -197.5,102.5462 -107.7074,56.6404 -197.5416,103.6947 -199.6316,104.5651 -10.427,4.3426 -27.5053,5.726 -39.2,3.1752 z m 249.7499,-267.397 c 168.5319,-88.6351 160.8857,-84.7213 169.5162,-86.7704 8.6295,-2.0489 23.8383,-2.0489 32.4678,0 8.6402,2.0515 1.0868,-1.8149 169.6251,86.8262 79.39754,41.7583 144.48554,75.7857 144.63994,75.6165 0.1545,-0.1692 -12.7033,-75.9076 -28.5729,-168.3076 -20.0366,-116.66275 -28.8595,-170.29184 -28.8725,-175.5 -0.035,-13.96294 4.8614,-29.09214 13.1509,-40.63506 1.789,-2.4912 58.5059,-58.33643 126.0375,-124.10053 67.5316,-65.76409 122.6572,-119.69866 122.5013,-119.85459 -0.156,-0.15592 -76.0995,-11.33822 -168.7634,-24.84953 -127.83342,-18.63939 -170.45884,-25.19327 -176.68264,-27.16591 -10.4445,-3.31037 -21.2787,-10.3866 -29.3086,-19.14248 -6.8728,-7.49412 -0.6758,4.72909 -111.0286,-218.99952 -26.653,-54.0362 -48.685,-98.24763 -48.96,-98.24763 -0.275,0 -22.3067,44.21143 -48.9594,98.24763 -110.6302,224.2938 -104.1467,211.50489 -111.0248,218.99952 -8.0378,8.75831 -18.8714,15.83301 -29.313,19.14248 -6.2239,1.97264 -48.8492,8.52652 -176.6826,27.16591 -92.6639,13.51131 -168.6074,24.69361 -168.7634,24.84953 -0.1559,0.15593 54.9697,54.0905 122.5013,119.85459 67.5316,65.7641 124.2485,121.60933 126.0375,124.10053 8.1618,11.36515 13.1535,26.58057 13.187,40.19594 0.012,4.75555 -9.2851,61.40207 -28.4746,173.50002 -15.6706,91.5415 -28.7292,167.4516 -29.0191,168.6891 -0.2898,1.2375 -0.2935,2.25 -0.01,2.25 0.2855,0 65.4315,-34.1391 144.7691,-75.8647 z"
     style="fill:#fe3c24" />
</svg>
