<svg width="36" height="36" viewBox="0 0 36 36" fill="none" xmlns="http://www.w3.org/2000/svg">
<path d="M16.2 1.8C16.2 1.32261 16.3896 0.864773 16.7272 0.527208C17.0648 0.189642 17.5226 0 18 0C18.4774 0 18.9352 0.189642 19.2728 0.527208C19.6104 0.864773 19.8 1.32261 19.8 1.8V5.4C19.8 5.87739 19.6104 6.33523 19.2728 6.67279C18.9352 7.01036 18.4774 7.2 18 7.2C17.5226 7.2 17.0648 7.01036 16.7272 6.67279C16.3896 6.33523 16.2 5.87739 16.2 5.4V1.8ZM16.2 30.6C16.2 30.1226 16.3896 29.6648 16.7272 29.3272C17.0648 28.9896 17.5226 28.8 18 28.8C18.4774 28.8 18.9352 28.9896 19.2728 29.3272C19.6104 29.6648 19.8 30.1226 19.8 30.6V34.2C19.8 34.6774 19.6104 35.1352 19.2728 35.4728C18.9352 35.8104 18.4774 36 18 36C17.5226 36 17.0648 35.8104 16.7272 35.4728C16.3896 35.1352 16.2 34.6774 16.2 34.2V30.6ZM18 27C15.6131 27 13.3239 26.0518 11.636 24.364C9.94821 22.6761 9 20.3869 9 18C9 15.6131 9.94821 13.3239 11.636 11.636C13.3239 9.94821 15.6131 9 18 9C20.3869 9 22.6761 9.94821 24.364 11.636C26.0518 13.3239 27 15.6131 27 18C27 20.3869 26.0518 22.6761 24.364 24.364C22.6761 26.0518 20.3869 27 18 27ZM18 23.4C19.4322 23.4 20.8057 22.8311 21.8184 21.8184C22.8311 20.8057 23.4 19.4322 23.4 18C23.4 16.5678 22.8311 15.1943 21.8184 14.1816C20.8057 13.1689 19.4322 12.6 18 12.6C16.5678 12.6 15.1943 13.1689 14.1816 14.1816C13.1689 15.1943 12.6 16.5678 12.6 18C12.6 19.4322 13.1689 20.8057 14.1816 21.8184C15.1943 22.8311 16.5678 23.4 18 23.4ZM1.8 19.8C1.32261 19.8 0.864773 19.6104 0.527208 19.2728C0.189642 18.9352 0 18.4774 0 18C0 17.5226 0.189642 17.0648 0.527208 16.7272C0.864773 16.3896 1.32261 16.2 1.8 16.2H5.4C5.87739 16.2 6.33523 16.3896 6.67279 16.7272C7.01036 17.0648 7.2 17.5226 7.2 18C7.2 18.4774 7.01036 18.9352 6.67279 19.2728C6.33523 19.6104 5.87739 19.8 5.4 19.8H1.8ZM30.6 19.8C30.1226 19.8 29.6648 19.6104 29.3272 19.2728C28.9896 18.9352 28.8 18.4774 28.8 18C28.8 17.5226 28.9896 17.0648 29.3272 16.7272C29.6648 16.3896 30.1226 16.2 30.6 16.2H34.2C34.6774 16.2 35.1352 16.3896 35.4728 16.7272C35.8104 17.0648 36 17.5226 36 18C36 18.4774 35.8104 18.9352 35.4728 19.2728C35.1352 19.6104 34.6774 19.8 34.2 19.8H30.6ZM29.3274 4.1274C29.6669 3.79952 30.1216 3.61809 30.5935 3.62219C31.0655 3.62629 31.5169 3.81559 31.8507 4.14933C32.1844 4.48306 32.3737 4.93452 32.3778 5.40648C32.3819 5.87843 32.2005 6.33312 31.8726 6.6726L29.0268 9.5184C28.6873 9.84628 28.2326 10.0277 27.7607 10.0236C27.2887 10.0195 26.8373 9.83021 26.5035 9.49647C26.1698 9.16274 25.9805 8.71128 25.9764 8.23932C25.9723 7.76737 26.1537 7.31268 26.4816 6.9732L29.3256 4.1274H29.3274ZM6.6726 31.8726C6.50656 32.0445 6.30793 32.1816 6.08833 32.276C5.86872 32.3703 5.63252 32.42 5.39352 32.4221C5.15452 32.4241 4.9175 32.3786 4.69628 32.2881C4.47507 32.1976 4.2741 32.0639 4.10509 31.8949C3.93608 31.7259 3.80243 31.5249 3.71192 31.3037C3.62141 31.0825 3.57587 30.8455 3.57795 30.6065C3.58003 30.3675 3.62968 30.1313 3.72402 29.9117C3.81835 29.6921 3.95548 29.4934 4.1274 29.3274L6.9732 26.4816C7.13924 26.3097 7.33786 26.1726 7.55747 26.0782C7.77708 25.9839 8.01328 25.9342 8.25228 25.9321C8.49128 25.9301 8.7283 25.9756 8.94952 26.0661C9.17073 26.1566 9.3717 26.2903 9.54071 26.4593C9.70972 26.6283 9.84337 26.8293 9.93388 27.0505C10.0244 27.2717 10.0699 27.5087 10.0679 27.7477C10.0658 27.9867 10.0161 28.2229 9.92178 28.4425C9.82745 28.6621 9.69032 28.8608 9.5184 29.0268L6.6744 31.8726H6.6726ZM4.1274 6.6726C3.79952 6.33312 3.61809 5.87843 3.62219 5.40648C3.62629 4.93452 3.81559 4.48306 4.14933 4.14933C4.48306 3.81559 4.93452 3.62629 5.40648 3.62219C5.87843 3.61809 6.33312 3.79952 6.6726 4.1274L9.5184 6.9732C9.84628 7.31268 10.0277 7.76737 10.0236 8.23932C10.0195 8.71128 9.83021 9.16274 9.49647 9.49647C9.16274 9.83021 8.71128 10.0195 8.23932 10.0236C7.76737 10.0277 7.31268 9.84628 6.9732 9.5184L4.1274 6.6744V6.6726ZM31.8726 29.3274C32.2005 29.6669 32.3819 30.1216 32.3778 30.5935C32.3737 31.0655 32.1844 31.5169 31.8507 31.8507C31.5169 32.1844 31.0655 32.3737 30.5935 32.3778C30.1216 32.3819 29.6669 32.2005 29.3274 31.8726L26.4816 29.0268C26.1537 28.6873 25.9723 28.2326 25.9764 27.7607C25.9805 27.2887 26.1698 26.8373 26.5035 26.5035C26.8373 26.1698 27.2887 25.9805 27.7607 25.9764C28.2326 25.9723 28.6873 26.1537 29.0268 26.4816L31.8726 29.3256V29.3274Z" fill="#C4C4C4"/>
</svg>
