<svg width="35" height="38" viewBox="0 0 35 38" fill="none" xmlns="http://www.w3.org/2000/svg">
<path d="M32 35.2001V35.2092C31.998 35.339 31.9546 35.4326 31.8936 35.4936C31.8312 35.5561 31.7346 35.6 31.6001 35.6H3.99996C3.8654 35.6 3.76883 35.5561 3.70639 35.4936C3.64396 35.4312 3.59998 35.3346 3.59998 35.2001V34.8001H3.99996H6.39994H29.2H31.6H32V35.2001ZM34 33.2001H32.8H32.4V4.64149C33.1179 4.34054 33.6001 3.64091 33.6001 2.8C33.6001 1.66952 32.7305 0.8 31.6001 0.8H3.99996C2.86948 0.8 1.99996 1.66952 1.99996 2.8C1.99996 3.63644 2.50793 4.32614 3.19998 4.63091V33.2001H2.8H1.59998C1.37453 33.2001 1.17112 33.2761 1.02357 33.4236C0.876014 33.5712 0.8 33.7746 0.8 34C0.8 34.2255 0.876014 34.4289 1.02357 34.5765C1.17112 34.724 1.37453 34.8 1.59998 34.8H1.99996V35.2C1.99996 36.3305 2.86948 37.2 3.99996 37.2H31.6C32.7305 37.2 33.6 36.3305 33.6 35.2V34.8H34C34.2254 34.8 34.4288 34.724 34.5764 34.5765C34.7239 34.4289 34.7999 34.2255 34.7999 34C34.7999 33.7746 34.724 33.5712 34.5764 33.4236C34.4289 33.2761 34.2255 33.2001 34 33.2001ZM3.99996 2.40003H31.6C31.7345 2.40003 31.8311 2.444 31.8936 2.50644C31.956 2.56887 32 2.66545 32 2.8C32 2.93456 31.956 3.03114 31.8936 3.09357C31.8311 3.15601 31.7345 3.19998 31.6 3.19998H3.99996C3.7632 3.19998 3.59998 3.00273 3.59998 2.8C3.59998 2.71508 3.64447 2.61339 3.72891 2.52895C3.81335 2.44451 3.91504 2.40003 3.99996 2.40003ZM4.80001 4.80001H30.8001V33.2001H30.0001V23.8001V6.40001C30.0001 6.17457 29.924 5.97115 29.7765 5.8236C29.6289 5.67605 29.4255 5.60003 29.2001 5.60003H6.40001C6.17457 5.60003 5.97115 5.67605 5.8236 5.8236C5.67605 5.97115 5.60003 6.17457 5.60003 6.40001V23.8001V33.2001H4.80001V4.80001ZM28.4 23H7.19999V7.19999H28.4V23ZM7.19999 24.6H28.4V33.2001H7.19999V24.6Z" fill="#C4C4C4" stroke="#C4C4C4" stroke-width="0.4"/>
</svg>
