<svg width="36" height="38" viewBox="0 0 36 38" fill="none" xmlns="http://www.w3.org/2000/svg">
<path d="M34.1725 32.8461H32.661V1.71712C32.661 1.2659 32.2952 0.9 31.8439 0.9H4.04573C3.59442 0.9 3.22861 1.2659 3.22861 1.71712V32.8461H1.71712C1.26581 32.8461 0.9 33.212 0.9 33.6632V36.2829C0.9 36.7341 1.26581 37.1 1.71712 37.1H34.1725C34.6238 37.1 34.9896 36.7341 34.9896 36.2829V33.6632C34.9897 33.2119 34.6238 32.8461 34.1725 32.8461ZM4.86284 2.53423H31.0267V32.8461H4.86284V2.53423ZM33.3554 35.4658H2.5343V34.4804H33.3554V35.4658Z" fill="#C4C4C4" stroke="#C4C4C4" stroke-width="0.2"/>
<path d="M16.6358 3.73801H6.66634C6.21503 3.73801 5.84922 4.10391 5.84922 4.55513V30.9706C5.84922 31.4218 6.21503 31.7877 6.66634 31.7877H16.6358C17.0871 31.7877 17.4529 31.4218 17.4529 30.9706V4.5552C17.4529 4.10399 17.0871 3.73801 16.6358 3.73801ZM7.48345 5.37232H14.298C14.1782 7.54342 13.8306 11.2676 12.8289 15.1907C11.8313 19.0972 10.1877 23.1906 7.48345 26.1464V5.37232ZM7.48345 30.1535V28.4384C10.5779 25.6943 12.8856 21.4634 14.3527 15.8651C15.21 12.5937 15.6216 9.43429 15.8186 7.07683V30.1535H7.48345Z" fill="#C4C4C4" stroke="#C4C4C4" stroke-width="0.2"/>
<path d="M29.2237 3.73801H19.2542C18.8029 3.73801 18.4371 4.10391 18.4371 4.55513V30.9706C18.4371 31.4218 18.8029 31.7877 19.2542 31.7877H29.2237C29.675 31.7877 30.0408 31.4218 30.0408 30.9706V4.5552C30.0408 4.10399 29.675 3.73801 29.2237 3.73801ZM28.4065 30.1535H20.0713V7.07673C20.2684 9.4342 20.68 12.5937 21.5373 15.8651C23.0044 21.4633 25.3122 25.6942 28.4065 28.4384V30.1535ZM23.0611 15.1907C22.0594 11.2676 21.7118 7.54342 21.592 5.37232H28.4066V26.1464C25.7024 23.1906 24.0587 19.0972 23.0611 15.1907Z" fill="#C4C4C4" stroke="#C4C4C4" stroke-width="0.2"/>
</svg>
