<?xml version="1.0" encoding="UTF-8" standalone="no"?>
<svg
   xmlns:dc="http://purl.org/dc/elements/1.1/"
   xmlns:cc="http://creativecommons.org/ns#"
   xmlns:rdf="http://www.w3.org/1999/02/22-rdf-syntax-ns#"
   xmlns:svg="http://www.w3.org/2000/svg"
   xmlns="http://www.w3.org/2000/svg"
   viewBox="0 0 1424.0068 1423.9512"
   height="1423.9512"
   width="1424.0068"
   version="1.1"
   id="svg2">
  <metadata
     id="metadata8">
    <rdf:RDF>
      <cc:Work
         rdf:about="">
        <dc:format>image/svg+xml</dc:format>
        <dc:type
           rdf:resource="http://purl.org/dc/dcmitype/StillImage" />
        <dc:title></dc:title>
      </cc:Work>
    </rdf:RDF>
  </metadata>
  <defs
     id="defs6" />
  <path
     id="path3338"
     d="M 159,1422.3598 C 77.34,1409.9485 13.483,1345.6703 1.5504,1263.8716 0.1649,1254.3733 0,1195.6934 0,712 0,228.30654 0.1649,169.62657 1.5504,160.12834 13.5573,77.82006 77.8201,13.55735 160.1283,1.55043 169.6266,0.16485 228.3065,0 711.99999,0 1195.6935,0 1254.3734,0.16485 1263.8717,1.55043 1338.4505,12.42981 1399.4889,66.95298 1418.3054,139.5 1424.4382,163.14481 1424,119.09239 1424,712 c 0,483.6934 -0.1649,542.3733 -1.5504,551.8716 -10.8794,74.5788 -65.4026,135.6172 -137.9496,154.4337 -23.6569,6.1359 20.6158,5.704 -573.62831,5.5965 C 243.5364,1423.8168 167.1857,1423.6039 159,1422.3598 Z m 1099.5,-74.6686 c 22.1348,-5.4722 37.3565,-13.031 52.1057,-25.8745 19.858,-17.2922 32.7051,-40.1614 37.5352,-66.8168 2.0412,-11.2639 2.0271,-1076.09489 -0.014,-1086.4999 -5.3002,-27.01538 -17.8398,-49.17867 -37.5209,-66.31681 -15.4216,-13.429 -33.5374,-22.07826 -55.1057,-26.30983 -10.405,-2.0414 -1075.2361,-2.05541 -1086.5,-0.0143 -26.6554,4.83018 -49.5246,17.67727 -66.8168,37.53523 -12.8436,14.74929 -20.4026,29.97154 -25.8744,52.10571 -1.6275,6.58343 -1.7508,38.62949 -2.0714,538.5 -0.2404,374.7496 -0.023,534.6523 0.7361,542.1889 2.839,28.1737 13.4655,51.0326 32.6352,70.2023 18.2233,18.2233 42.0925,29.7442 67.3913,32.5276 4.125,0.4538 248.025,0.7527 541.99999,0.664 503.07841,-0.1516 534.91151,-0.2628 541.50001,-1.8916 z M 473.8519,972.13431 c -7.2023,-2.8879 -13.6086,-8.0179 -17.7416,-14.207 -4.9975,-7.4838 -6.4012,-12.9166 -5.9664,-23.0922 0.6758,-15.8172 -6.3887,-7.8065 107.2226,-121.58511 L 658.46749,712 557.3665,610.75 C 441.7959,495.00913 450.5,505.08835 450.5,487 c 0,-9.49201 0.2706,-11.05098 2.8184,-16.23943 3.5908,-7.31243 10.1297,-13.85138 17.4422,-17.44219 C 475.949,450.77056 477.508,450.5 487,450.5 c 18.0883,0 8.0091,-8.70409 123.75,106.86649 l 101.24999,101.10103 101.25,-101.10103 C 928.99089,441.79591 918.91159,450.5 936.99999,450.5 c 9.492,0 11.051,0.27056 16.2394,2.81838 7.3125,3.59081 13.8514,10.12976 17.4422,17.44219 2.5478,5.18845 2.8184,6.74742 2.8184,16.23943 0,18.08835 8.7041,8.00913 -106.8665,123.75 l -101.101,101.25 101.101,101.25 c 115.5706,115.74081 106.8665,105.66161 106.8665,123.74991 0,9.4921 -0.2706,11.051 -2.8184,16.2395 -3.5908,7.3124 -10.1297,13.8513 -17.4422,17.4421 -5.1884,2.5478 -6.7474,2.8184 -16.2394,2.8184 -18.0884,0 -8.0091,8.7041 -123.75,-106.86636 L 711.99999,765.53248 610.75,866.63355 C 495.9405,981.27401 505.0769,973.30131 488,973.74891 c -7.3741,0.1933 -10.5402,-0.168 -14.1481,-1.6146 z"
     style="fill:#fe3c24" />
</svg>
