<svg width="64" height="62" viewBox="0 0 64 62" fill="none" xmlns="http://www.w3.org/2000/svg">
<path d="M59.3752 0H4.625V54.6317H59.3752V0Z" fill="#CFDCE5"/>
<path d="M59.3752 52.7383H4.625V58.0488H59.3752V52.7383Z" fill="#BAC6CC"/>
<path d="M64 54.6313H0V61.9998H64V54.6313Z" fill="#CFDCE5"/>
<path d="M29.4285 4.90625H9.76758V49.7256H29.4285V4.90625Z" fill="#314A5F"/>
<path d="M54.2332 4.90625H34.5723V49.7256H54.2332V4.90625Z" fill="#314A5F"/>
<path d="M54.2332 4.90576H34.5723V12.4104C34.5723 12.4104 37.097 31.6585 53.4497 32.2545C44.5476 37.5298 42.9472 49.7268 42.9472 49.7268H54.233V31.8175C54.2331 31.8175 54.2332 31.8175 54.2334 31.8174V4.90576H54.2332ZM53.4502 32.2544C53.4615 32.2476 53.4733 32.2412 53.4847 32.2345C53.473 32.2465 53.4617 32.2545 53.4502 32.2544Z" fill="#F13F2B"/>
<path d="M9.76758 4.9054V31.8169C9.7677 31.817 9.76808 31.817 9.7682 31.8172V49.7263H21.054C21.054 49.7263 19.4536 37.5293 10.5516 32.254C26.9039 31.6578 29.4285 12.4099 29.4285 12.4099V4.90527H9.76758V4.9054ZM10.5241 32.2387C10.5322 32.2435 10.5406 32.2482 10.5487 32.253C10.5403 32.2522 10.5322 32.2474 10.5241 32.2387Z" fill="#F13F2B"/>
<path d="M29.4285 4.90576H9.76758V11.3918H29.4285V4.90576Z" fill="#E25749"/>
<path d="M54.2332 4.90576H34.5723V11.3918H54.2332V4.90576Z" fill="#E25749"/>
</svg>
