<svg width="64" height="62" fill="none" xmlns="http://www.w3.org/2000/svg"><path d="M59.375 0H4.625v54.632h54.75V0z" fill="#CFDCE5"/><path d="M59.375 52.738H4.625v5.31h54.75v-5.31z" fill="#BAC6CC"/><path d="M64 54.631H0V62h64v-7.37z" fill="#CFDCE5"/><path d="M29.428 4.906H9.768v44.82h19.66V4.906zm24.805 0h-19.66v44.82h19.66V4.906z" fill="#314A5F"/><path d="M54.233 4.906h-19.66v7.504s2.524 19.248 18.877 19.845c-8.902 5.275-10.503 17.472-10.503 17.472h11.286V4.906zm-.783 27.348l.035-.02c-.012.012-.023.02-.035.02zM9.768 4.905v44.822h11.286s-1.6-12.198-10.502-17.473c16.352-.596 18.877-19.844 18.877-19.844V4.905H9.767zm.756 27.334l.025.014c-.009 0-.017-.006-.025-.014z" fill="#F13F2B"/><path d="M29.428 4.906H9.768v6.486h19.66V4.906zm24.805 0h-19.66v6.486h19.66V4.906z" fill="#E25749"/></svg>