<svg width="56" height="62" fill="none" xmlns="http://www.w3.org/2000/svg"><path d="M55.007 13.325L28 4.477.992 13.325v10.787c0 15.392 9.26 29.631 24.365 37.779.872.071 1.753.11 2.643.11.89 0 1.77-.039 2.642-.11 15.106-8.148 24.365-22.387 24.365-37.78V13.325zM48.8 24.112c0 13.331-7.888 25.688-20.8 32.922C15.09 49.8 7.202 37.444 7.202 24.112v-7.136L28 10.162l20.799 6.814v7.136z" fill="#D0D0D0"/><path d="M28 59.375C11.338 51.515.992 36.531.992 20.26V9.473L28 .625l27.007 8.848v10.786c0 16.272-10.346 31.256-27.007 39.116z" fill="#EDC85F"/><path d="M33.004 2.264l22.004 7.209v10.786c0 14.574-8.301 28.114-22.004 36.428C19.3 48.373 11 34.833 11 20.26V9.473l22.004-7.209z" fill="#FFD06B"/><path d="M.992 9.473v10.786C.992 36.531 11.338 51.516 28 59.376c16.661-7.86 27.007-22.844 27.007-39.115V9.473L28 .625.992 9.473zM48.8 20.259c0 13.332-7.888 25.688-20.8 32.923C15.09 45.947 7.202 33.592 7.202 20.26v-7.136L28 6.31l20.799 6.814v7.135z" fill="#FFFAD2"/><path d="M29.325 58.727c-.438.22-.879.437-1.325.648C11.338 51.515.992 36.53.992 20.259V9.473l3.493-1.144v10.668c0 16.044 9.406 30.919 24.84 39.73z" fill="#FFF5AF"/></svg>