<svg width="57" height="64" fill="none" xmlns="http://www.w3.org/2000/svg"><path d="M28.599 17.973a1.93 1.93 0 0 1-1.143-.373l-6.207-4.537a1.93 1.93 0 0 1-.418-2.7 1.936 1.936 0 0 1 2.703-.418l5.065 3.703 5.064-3.703a1.936 1.936 0 0 1 2.704.418 1.93 1.93 0 0 1-.418 2.7L29.74 17.6c-.34.248-.741.373-1.142.373zm-7.77 35.664a1.93 1.93 0 0 1 .418-2.7l6.207-4.537a1.937 1.937 0 0 1 2.285 0l6.208 4.538a1.93 1.93 0 0 1 .418 2.7 1.936 1.936 0 0 1-2.704.417l-5.064-3.702-5.065 3.702c-1.222.809-2.324.099-2.703-.418zm-4.519-28.58a1.93 1.93 0 0 1-.896.802l-7.038 3.099a1.936 1.936 0 0 1-2.55-.989 1.93 1.93 0 0 1 .989-2.546l5.743-2.529-.679-6.23a1.934 1.934 0 1 1 3.846-.418l.832 7.636c.046.419-.047.828-.248 1.175zm27.128 24.408a1.934 1.934 0 0 1-2.132-1.711l-.832-7.637a1.932 1.932 0 0 1 1.143-1.976l7.039-3.099a1.93 1.93 0 1 1 1.56 3.535l-5.742 2.529.678 6.23c.09 1.462-1.076 2.06-1.714 2.13zM16.391 39.084c.2.347.294.756.248 1.175l-.832 7.636a1.934 1.934 0 0 1-3.846-.417l.679-6.23-5.743-2.53a1.93 1.93 0 0 1-.99-2.546 1.936 1.936 0 0 1 2.55-.988l7.04 3.099c.385.17.693.455.894.801zm34.733-11.256a1.936 1.936 0 0 1-2.55.988l-7.04-3.099a1.93 1.93 0 0 1-1.142-1.976l.832-7.636a1.934 1.934 0 0 1 3.846.417l-.678 6.231 5.743 2.529c1.312.652 1.248 1.96.99 2.546z" fill="#73B7DD"/><path d="M28.599 17.973c.4 0 .802-.125 1.142-.373l4.18-3.055V9.789a1.917 1.917 0 0 0-.258.156L28.6 13.647l-4.995-3.65v4.787l3.852 2.816c.34.249.741.373 1.143.373zM27.455 46.4l-4.015 2.936v4.778c.03-.02.062-.038.093-.06l5.065-3.701 5.064 3.702c.03.022.063.041.094.061v-4.78L29.741 46.4a1.937 1.937 0 0 0-2.286 0zM16.31 25.057c.2-.347.293-.756.248-1.174l-.533-4.891-4.149-2.392.004.064.678 6.23-5.742 2.529a1.91 1.91 0 0 0-.144.072l4.144 2.389 4.6-2.025a1.93 1.93 0 0 0 .894-.802zm28.844 22.279l-.678-6.23 5.618-2.474-4.152-2.394-4.323 1.904a1.931 1.931 0 0 0-1.143 1.976l.566 5.19 4.11 2.37c.008-.108.01-.222.002-.342zm-28.762-8.252a1.929 1.929 0 0 0-.895-.802l-4.415-1.944-4.152 2.394 5.71 2.515-.678 6.23c-.009.086-.01.17-.009.255l4.133-2.383.554-5.09a1.928 1.928 0 0 0-.248-1.175zm25.145-13.366l4.877 2.147 4.09-2.358a2.39 2.39 0 0 0-.367-.225l-5.743-2.529.653-5.995-4.153 2.394-.5 4.59a1.93 1.93 0 0 0 1.143 1.976z" fill="#5E9CD3"/><path d="M52.437 43.7l-19.97-11.512 19.97-11.513a1.93 1.93 0 0 0 .708-2.638 1.935 1.935 0 0 0-2.643-.707l-19.97 11.512V5.44a1.933 1.933 0 0 0-1.934-1.931 1.933 1.933 0 0 0-1.934 1.931v23.402l-20.297-11.7a1.935 1.935 0 0 0-2.643.706 1.93 1.93 0 0 0 .708 2.639l20.297 11.7L4.432 43.89a1.93 1.93 0 0 0-.708 2.639c.359.62 1.365 1.292 2.643.706l20.296-11.7V58.56c0 1.067.866 1.931 1.935 1.931a1.933 1.933 0 0 0 1.934-1.931V35.534l19.97 11.512c1.305.729 2.284-.087 2.643-.707a1.93 1.93 0 0 0-.708-2.638z" fill="#B3DBF4"/><path d="M39.512 38.29l2.008-.884-9.052-5.218 9.422-5.432-2.378-1.047.237-2.18-9.215 5.313V18.004L28.6 19.418l-1.935-1.414v10.838L17.45 23.53l.238 2.178-2.38 1.048 9.423 5.432-9.052 5.218 2.008.884-.28 2.581 9.258-5.338v10.462l1.934-1.414 1.935 1.414V35.533l9.259 5.338-.281-2.58z" fill="#94CBED"/><path d="M28.598 7.253a3.629 3.629 0 0 0 3.632-3.627A3.629 3.629 0 0 0 28.598 0a3.629 3.629 0 0 0-3.631 3.626 3.629 3.629 0 0 0 3.631 3.627zm0 56.747a3.629 3.629 0 0 0 3.632-3.626 3.629 3.629 0 0 0-3.632-3.626 3.629 3.629 0 0 0-3.631 3.626A3.629 3.629 0 0 0 28.598 64zM3.632 21.533a3.629 3.629 0 0 0 3.631-3.626 3.629 3.629 0 0 0-3.631-3.626A3.629 3.629 0 0 0 0 17.907a3.629 3.629 0 0 0 3.632 3.626zm49.216 28.374a3.629 3.629 0 0 0 3.632-3.626 3.629 3.629 0 0 0-3.632-3.626 3.629 3.629 0 0 0-3.631 3.626 3.629 3.629 0 0 0 3.631 3.626zm-49.216.189a3.629 3.629 0 0 0 3.631-3.626 3.629 3.629 0 0 0-3.631-3.626A3.629 3.629 0 0 0 0 46.47a3.629 3.629 0 0 0 3.632 3.626zm49.216-28.375a3.629 3.629 0 0 0 3.632-3.626 3.629 3.629 0 0 0-3.632-3.626 3.629 3.629 0 0 0-3.631 3.626 3.629 3.629 0 0 0 3.631 3.626zM22.604 44.765a2.72 2.72 0 0 1-1.362-.37 2.676 2.676 0 0 1-1.34-2.64l.562-5.167L15.7 34.49a2.677 2.677 0 0 1-1.619-2.48c0-1.09.62-2.04 1.62-2.48l4.762-2.097-.563-5.167a2.676 2.676 0 0 1 1.341-2.64 2.685 2.685 0 0 1 2.961.16l4.2 3.07 4.2-3.07a2.685 2.685 0 0 1 2.96-.16 2.676 2.676 0 0 1 1.342 2.64l-.563 5.167 4.763 2.097c.998.44 1.619 1.39 1.619 2.48s-.62 2.04-1.62 2.48l-4.762 2.097.563 5.167a2.677 2.677 0 0 1-1.342 2.64 2.685 2.685 0 0 1-2.96-.16l-4.2-3.07-4.2 3.07a2.703 2.703 0 0 1-1.6.53zm.005-23.573a.826.826 0 0 0-.4.108.766.766 0 0 0-.385.759l.64 5.87a.965.965 0 0 1-.572.987l-5.41 2.382a.766.766 0 0 0-.465.713c0 .12.033.523.465.713l5.41 2.382c.386.17.617.57.572.988l-.64 5.87a.765.765 0 0 0 .386.758c.103.06.47.233.85-.046l4.772-3.487a.968.968 0 0 1 1.142 0l4.771 3.487c.381.28.748.106.852.046a.766.766 0 0 0 .385-.759l-.64-5.87a.965.965 0 0 1 .572-.987l5.41-2.382a.766.766 0 0 0 .466-.713.766.766 0 0 0-.466-.713l-5.41-2.382a.966.966 0 0 1-.571-.988l.639-5.87a.766.766 0 0 0-.386-.758.768.768 0 0 0-.85.046l-4.772 3.487a.968.968 0 0 1-1.142 0l-4.771-3.487a.754.754 0 0 0-.452-.154z" fill="#CAE7FC"/></svg>