<svg width="64" height="52" fill="none" xmlns="http://www.w3.org/2000/svg"><path d="M31.396 14.49H19.322a1.208 1.208 0 0 1 0-2.415h12.075a2.415 2.415 0 0 0 2.416-2.414l-.001-.036a2.415 2.415 0 0 0-4.692-.77 1.207 1.207 0 1 1-2.278-.804 4.83 4.83 0 0 1 9.385 1.54 4.83 4.83 0 0 1-4.76 4.899h-.07z" fill="#AEDEE2"/><path d="M31.396 0a9.708 9.708 0 0 0-8.73 5.52 1.207 1.207 0 0 0 2.181 1.036 7.246 7.246 0 1 1 6.549 10.35H1.208a1.208 1.208 0 0 0 0 2.414h30.188a9.66 9.66 0 0 0 9.66-9.66c0-5.335-4.325-9.66-9.66-9.66z" fill="#8ACED8"/><path d="M54.34 47.094a4.83 4.83 0 0 1-4.555-3.221 1.207 1.207 0 1 1 2.277-.804 2.333 2.333 0 0 0 2.313 1.61 2.461 2.461 0 0 0 2.38-2.38 2.415 2.415 0 0 0-2.38-2.45H42.264a1.208 1.208 0 0 1 0-2.415H54.34a4.83 4.83 0 0 1 4.83 4.83v.07a4.864 4.864 0 0 1-4.76 4.76h-.07z" fill="#AEDEE2"/><path d="M54.34 32.603H27.773a1.207 1.207 0 1 0 0 2.416h26.565a7.245 7.245 0 1 1-6.548 10.35 1.208 1.208 0 0 0-2.205.984l.024.051a9.66 9.66 0 0 0 12.868 4.587 9.66 9.66 0 1 0-4.14-18.388z" fill="#8ACED8"/><path d="M20.528 26.566H9.661a1.208 1.208 0 0 1 0-2.415h10.867a1.207 1.207 0 1 1 0 2.415zm8.453 0h-3.623a1.208 1.208 0 0 1 0-2.415h3.623a1.208 1.208 0 0 1 0 2.415zm19.32 0h-14.49a1.208 1.208 0 0 1 0-2.415h14.49a1.207 1.207 0 1 1 0 2.415z" fill="#B3E4E8"/><path d="M14.49 14.49h-3.622a1.207 1.207 0 1 1 0-2.415h3.622a1.208 1.208 0 0 1 0 2.415zm-8.452 0h-4.83a1.207 1.207 0 1 1 0-2.415h4.83a1.208 1.208 0 0 1 0 2.415z" fill="#AEDEE2"/><path d="M4.83 26.566H1.208a1.208 1.208 0 0 1 0-2.415H4.83a1.207 1.207 0 1 1 0 2.415z" fill="#B3E4E8"/><path d="M37.434 39.849H33.81a1.207 1.207 0 1 1 0-2.415h3.623a1.208 1.208 0 0 1 0 2.415zm-8.453 0h-3.623a1.208 1.208 0 0 1 0-2.415h3.623a1.208 1.208 0 0 1 0 2.415z" fill="#AEDEE2"/><path d="M22.943 35.019h-3.622a1.208 1.208 0 0 1 0-2.416h3.622a1.207 1.207 0 1 1 0 2.416zm-8.453 0h-2.415a1.207 1.207 0 1 1 0-2.416h2.415a1.207 1.207 0 1 1 0 2.416z" fill="#8ACED8"/><path d="M20.527 39.849h-8.452a1.207 1.207 0 1 1 0-2.415h8.452a1.207 1.207 0 1 1 0 2.415z" fill="#AEDEE2"/></svg>